<?xml version="1.0" encoding="UTF-8" standalone="no"?>
<!-- Created with Inkscape (http://www.inkscape.org/) -->

<svg
   width="100mm"
   height="100mm"
   viewBox="0 0 100 100"
   version="1.1"
   id="svg1"
   inkscape:version="1.3 (0e150ed, 2023-07-21)"
   sodipodi:docname="dP_icon.svg"
   inkscape:export-filename="favicon.svg"
   inkscape:export-xdpi="96"
   inkscape:export-ydpi="96"
   xmlns:inkscape="http://www.inkscape.org/namespaces/inkscape"
   xmlns:sodipodi="http://sodipodi.sourceforge.net/DTD/sodipodi-0.dtd"
   xmlns:xlink="http://www.w3.org/1999/xlink"
   xmlns="http://www.w3.org/2000/svg"
   xmlns:svg="http://www.w3.org/2000/svg">
  <sodipodi:namedview
     id="namedview1"
     pagecolor="#ffffff"
     bordercolor="#000000"
     borderopacity="0.25"
     inkscape:showpageshadow="2"
     inkscape:pageopacity="0.0"
     inkscape:pagecheckerboard="0"
     inkscape:deskcolor="#d1d1d1"
     inkscape:document-units="mm"
     inkscape:zoom="1"
     inkscape:cx="219.5"
     inkscape:cy="264.5"
     inkscape:window-width="1512"
     inkscape:window-height="816"
     inkscape:window-x="1920"
     inkscape:window-y="38"
     inkscape:window-maximized="0"
     inkscape:current-layer="layer1" />
  <defs
     id="defs1">
    <linearGradient
       id="linearGradient20"
       inkscape:collect="always">
      <stop
         style="stop-color:#0aa17e;stop-opacity:1;"
         offset="0.20925714"
         id="stop18" />
      <stop
         style="stop-color:#7abb46;stop-opacity:1;"
         offset="0.43215489"
         id="stop19" />
      <stop
         style="stop-color:#ebd50f;stop-opacity:1;"
         offset="0.87373739"
         id="stop20" />
    </linearGradient>
    <linearGradient
       id="linearGradient8"
       inkscape:collect="always">
      <stop
         style="stop-color:#ebd50f;stop-opacity:1;"
         offset="0.36617404"
         id="stop21" />
      <stop
         style="stop-color:#ad248e;stop-opacity:1;"
         offset="0.87372082"
         id="stop8" />
    </linearGradient>
    <linearGradient
       inkscape:collect="always"
       xlink:href="#linearGradient8"
       id="linearGradient9"
       x1="0.11224555"
       y1="74.702629"
       x2="85.510651"
       y2="-3.4569383"
       gradientUnits="userSpaceOnUse" />
    <linearGradient
       inkscape:collect="always"
       xlink:href="#linearGradient20"
       id="linearGradient18"
       gradientUnits="userSpaceOnUse"
       x1="29.059319"
       y1="85.622795"
       x2="85.510651"
       y2="74.702629" />
  </defs>
  <g
     inkscape:label="Layer 1"
     inkscape:groupmode="layer"
     id="layer1"
     transform="translate(7.1886008,14.377202)">
    <path
       id="path13"
       style="font-size:25.4834px;font-family:'Gill Sans';-inkscape-font-specification:'Gill Sans';text-align:center;text-anchor:middle;opacity:0.920103;fill:url(#linearGradient9);stroke-width:2.22267;stroke-linecap:square"
       d="M 37.563706 -3.4569383 L 37.563706 26.672489 C 37.283681 26.334632 36.975972 26.009944 36.641799 25.700455 C 36.307624 25.390966 35.946894 25.096532 35.560728 24.819372 C 35.17456 24.542212 34.762699 24.282511 34.326695 24.041642 C 33.890689 23.800772 33.430621 23.578735 32.946934 23.378116 C 32.463246 23.177498 31.956345 22.998121 31.42713 22.841715 C 30.897915 22.685309 30.346073 22.552038 29.773484 22.443806 C 29.200896 22.335575 28.607554 22.252373 27.993748 22.196276 C 27.379941 22.140176 26.745958 22.11101 26.093089 22.11101 C 25.619926 22.11101 25.151747 22.120909 24.68904 22.139949 C 24.226333 22.159039 23.768765 22.187562 23.316514 22.225732 C 22.864262 22.263902 22.417307 22.311613 21.975511 22.368875 C 21.533713 22.426135 21.097371 22.493034 20.66603 22.56938 C 20.234687 22.64573 19.808441 22.731814 19.387555 22.827245 C 18.966667 22.922675 18.551035 23.027436 18.140602 23.141955 C 17.730171 23.256474 17.325149 23.380419 16.925173 23.514025 C 16.525195 23.647631 16.130271 23.790765 15.740749 23.943456 C 15.351227 24.096149 14.966914 24.25847 14.587848 24.430248 C 14.20878 24.602027 13.835082 24.783536 13.466469 24.974401 C 13.097858 25.165267 12.734254 25.365446 12.376096 25.575398 C 12.01794 25.78535 11.664949 26.004717 11.317246 26.233756 C 10.969545 26.462794 10.627167 26.70135 10.289919 26.949474 C 9.9526714 27.1976 9.6209065 27.455342 9.294114 27.722554 C 8.9673217 27.989765 8.6456525 28.266696 8.3293151 28.552994 C 8.0129775 28.839292 7.7019213 29.134895 7.3960387 29.440278 C 7.092546 29.745662 6.7984463 30.056648 6.513922 30.372521 C 6.2293976 30.688396 5.9542054 31.009405 5.6886494 31.33577 C 5.4230932 31.662135 5.1673253 31.993687 4.9207376 32.330541 C 4.6741498 32.667397 4.4367726 33.00949 4.2091531 33.356835 C 3.9815336 33.704181 3.7635806 34.056815 3.5549295 34.414652 C 3.3462783 34.772487 3.1472328 35.135664 2.9575499 35.503991 C 2.7678671 35.872318 2.5872122 36.246035 2.4164977 36.624853 C 2.245783 37.00367 2.0845525 37.387412 1.9328063 37.776721 C 1.7810599 38.166028 1.6392537 38.560829 1.5064757 38.960628 C 1.3736977 39.360425 1.2502821 39.765251 1.1364724 40.175541 C 1.0226628 40.585829 0.91815467 41.001196 0.82331326 41.421976 C 0.72847186 41.842756 0.64338805 42.269181 0.56751492 42.700451 C 0.4916418 43.131721 0.42494874 43.568171 0.36804389 44.009932 C 0.31113905 44.451692 0.26387026 44.898685 0.22593371 45.350935 C 0.18799714 45.803187 0.15963587 46.26072 0.14066759 46.723461 C 0.12169931 47.186203 0.11224555 47.654277 0.11224555 48.12751 C 0.11224555 49.139239 0.14796072 50.125025 0.2202493 51.085469 C 0.25639356 51.56569 0.30194186 52.039686 0.35615831 52.507088 C 0.41037476 52.974488 0.47352224 53.435369 0.54581082 53.889949 C 0.61809935 54.344528 0.69936285 54.792811 0.78972358 55.23457 C 0.88008429 55.676327 0.97946371 56.111497 1.0878966 56.540433 C 1.1963295 56.96937 1.3138248 57.39194 1.4403299 57.808056 C 1.5668348 58.224172 1.7024462 58.634145 1.8470234 59.037438 C 1.9916005 59.440733 2.1453277 59.837591 2.3079772 60.228063 C 2.4706265 60.618537 2.6419529 61.002279 2.8226744 61.379931 C 3.0033959 61.757583 3.193355 62.128727 3.3921487 62.493558 C 3.5909424 62.858389 3.7990175 63.216935 4.0158832 63.568945 C 4.2327491 63.920953 4.4584232 64.266902 4.6933613 64.606091 C 4.9282992 64.945278 5.1720893 65.277596 5.4250996 65.603963 C 5.6781097 65.930329 5.9405324 66.250565 6.2116149 66.564111 C 6.4826972 66.877655 6.7627191 67.184778 7.0518736 67.485501 C 7.3434179 67.786223 7.641051 68.077423 7.9448424 68.35935 C 8.2486338 68.641276 8.5584628 68.91374 8.8745014 69.176871 C 9.1905401 69.440003 9.5125648 69.693729 9.8408507 69.938065 C 10.169137 70.182401 10.503874 70.417391 10.844407 70.642931 C 11.184941 70.868473 11.531356 71.084725 11.884137 71.291471 C 12.236917 71.498216 12.596046 71.695732 12.961074 71.883683 C 13.326101 72.071633 13.696909 72.249896 14.074184 72.41905 C 14.451459 72.588206 14.83498 72.748247 15.224501 72.898608 C 15.614024 73.048969 16.009739 73.189755 16.411509 73.321321 C 16.813279 73.452887 17.22119 73.574936 17.635207 73.687707 C 18.049224 73.800477 18.469332 73.903791 18.895595 73.997765 C 19.321859 74.091745 19.754162 74.176316 20.192674 74.251497 C 20.631184 74.326677 21.075685 74.392515 21.526442 74.448901 C 21.977201 74.505281 22.434413 74.552387 22.897418 74.589977 C 23.823429 74.665157 24.773924 74.702632 25.748924 74.702632 L 37.563706 74.702632 L 48.05919 74.702632 L 48.05919 44.573205 C 48.339215 44.911061 48.646924 45.23575 48.981097 45.545239 C 49.315272 45.854726 49.676002 46.148645 50.062168 46.425805 C 50.448336 46.702965 50.859679 46.963182 51.295685 47.204052 C 51.731689 47.444922 52.192275 47.666442 52.675962 47.867061 C 53.15965 48.067678 53.666551 48.247573 54.195766 48.403979 C 54.724982 48.560385 55.276307 48.693655 55.848895 48.801887 C 56.421484 48.910119 57.015342 48.993322 57.629148 49.049417 C 58.242955 49.105517 58.876939 49.134167 59.529807 49.134167 C 60.002971 49.134167 60.471149 49.124865 60.933856 49.105745 C 61.396564 49.086655 61.853613 49.058132 62.305865 49.019962 C 62.758118 48.981792 63.205588 48.934082 63.647386 48.876818 C 64.089182 48.819558 64.525525 48.75266 64.956866 48.676314 C 65.388209 48.599964 65.814455 48.513881 66.235341 48.418448 C 66.656229 48.323018 67.071861 48.218258 67.482294 48.103739 C 67.892725 47.989219 68.297747 47.865275 68.697723 47.731668 C 69.0977 47.598063 69.492625 47.45493 69.882147 47.302237 C 70.271669 47.149545 70.655982 46.987224 71.035048 46.815445 C 71.414115 46.643666 71.787815 46.462158 72.156427 46.271292 C 72.525039 46.080428 72.888643 45.880247 73.2468 45.670296 C 73.604955 45.460344 73.957431 45.240459 74.305133 45.011421 C 74.652835 44.782383 74.99573 44.543827 75.332977 44.295702 C 75.670224 44.047579 76.00199 43.790351 76.328782 43.52314 C 76.655574 43.255929 76.977244 42.978996 77.293581 42.6927 C 77.609918 42.406402 77.920976 42.110282 78.226857 41.804898 C 78.530349 41.499516 78.82445 41.189047 79.108974 40.873172 C 79.393498 40.557299 79.668691 40.236288 79.934247 39.909924 C 80.199802 39.583559 80.455572 39.252008 80.702158 38.915152 C 80.948746 38.578298 81.186123 38.236204 81.413743 37.888858 C 81.641363 37.541513 81.859315 37.188877 82.067967 36.831042 C 82.276617 36.473205 82.475663 36.110029 82.665346 35.741703 C 82.855029 35.373376 83.035167 34.999657 83.205882 34.620841 C 83.376596 34.242023 83.537826 33.858281 83.689573 33.468973 C 83.84132 33.079666 83.983642 32.684865 84.11642 32.285066 C 84.249199 31.885268 84.372613 31.480442 84.486424 31.070153 C 84.600234 30.659865 84.704741 30.243979 84.799583 29.823201 C 84.894423 29.402421 84.979508 28.976512 85.055381 28.545243 C 85.131251 28.113973 85.197947 27.677521 85.254852 27.235762 C 85.311762 26.794001 85.359026 26.347009 85.396962 25.894758 C 85.434902 25.442509 85.463258 24.984974 85.482228 24.522232 C 85.501198 24.059492 85.510651 23.591415 85.510651 23.118184 C 85.510651 22.106455 85.474421 21.120669 85.40213 20.160225 C 85.36599 19.680002 85.32095 19.206007 85.266738 18.738606 C 85.212518 18.271206 85.149374 17.810324 85.077085 17.355745 C 85.004795 16.901165 84.923533 16.452883 84.833172 16.011124 C 84.742813 15.569365 84.643432 15.134197 84.534999 14.705261 C 84.426565 14.276324 84.309071 13.853753 84.182566 13.437638 C 84.056061 13.021522 83.92045 12.61155 83.775873 12.208255 C 83.631295 11.804962 83.477568 11.408104 83.314919 11.01763 C 83.152269 10.627158 82.980426 10.243415 82.799705 9.8657627 C 82.618983 9.4881109 82.429541 9.1164492 82.230747 8.7516188 C 82.031955 8.3867884 81.823879 8.0287582 81.607013 7.676749 C 81.390147 7.3247399 81.164473 6.9787909 80.929535 6.639603 C 80.694597 6.3004152 80.450289 5.9675809 80.19728 5.6412143 C 79.94427 5.3148479 79.682364 4.9951282 79.411281 4.681583 C 79.140199 4.3680378 78.860177 4.0609161 78.571022 3.7601922 C 78.279478 3.4594708 77.981845 3.1682701 77.678054 2.8863437 C 77.374262 2.6044175 77.064433 2.3319537 76.748395 2.0688226 C 76.432356 1.8056913 76.109814 1.5519649 75.781529 1.3076287 C 75.453243 1.0632927 75.119022 0.82830321 74.778489 0.60276219 C 74.437956 0.37722118 74.091539 0.1609689 73.738759 -0.045777033 C 73.38598 -0.25252297 73.02685 -0.45003809 72.661822 -0.63798895 C 72.296796 -0.82593979 71.92547 -1.0042011 71.548195 -1.1733568 C 71.170922 -1.3425125 70.787916 -1.5025533 70.398395 -1.6529141 C 70.008873 -1.8032747 69.613156 -1.9440617 69.211387 -2.0756273 C 68.809618 -2.2071929 68.401706 -2.3292427 67.987689 -2.4420132 C 67.573673 -2.5547837 67.153564 -2.658613 66.727301 -2.7525886 C 66.301037 -2.8465635 65.868734 -2.9311395 65.430222 -3.0063198 C 64.991712 -3.0815008 64.546696 -3.1468218 64.095937 -3.203207 C 63.645178 -3.259592 63.188484 -3.3066935 62.725478 -3.3442837 C 61.799466 -3.4194636 60.848974 -3.4569383 59.873972 -3.4569383 L 48.05919 -3.4569383 L 37.563706 -3.4569383 z M 48.05919 5.2706943 L 56.146035 5.2706943 C 57.312215 5.2706943 58.38886 5.2892069 59.375812 5.3265049 C 60.362763 5.3638028 61.259916 5.4198559 62.067637 5.4944533 C 62.875358 5.5690502 63.593536 5.6626416 64.222027 5.7745395 C 64.536273 5.8304885 64.827988 5.8906494 65.097426 5.9559238 C 65.366865 6.0211987 65.613835 6.0911301 65.838466 6.1657301 C 66.287728 6.314919 66.731301 6.4995391 67.168618 6.718668 C 67.605934 6.9377967 68.037228 7.191828 68.462595 7.4808953 C 68.887964 7.7699627 69.307499 8.0939245 69.720917 8.452929 C 70.134334 8.8119336 70.541601 9.2058288 70.943064 9.634769 C 71.277625 9.9937687 71.591351 10.371668 71.884092 10.76855 C 72.176833 11.165432 72.448625 11.581255 72.699546 12.016019 C 72.950467 12.450783 73.180326 12.904531 73.389427 13.377176 C 73.598526 13.849822 73.78697 14.341493 73.95425 14.852022 C 74.12153 15.362549 74.267523 15.892145 74.392983 16.440555 C 74.518443 16.988966 74.623019 17.555967 74.706659 18.14226 C 74.790299 18.728553 74.853458 19.333994 74.895278 19.95817 C 74.937098 20.582346 74.957806 21.225192 74.957806 21.887251 C 74.957806 22.591265 74.933766 23.277643 74.885976 23.945523 C 74.838186 24.613405 74.766591 25.263011 74.671002 25.894758 C 74.575412 26.526507 74.45575 27.140375 74.312368 27.73599 C 74.168984 28.331604 74.001767 28.909218 73.810589 29.468701 C 73.619413 30.028182 73.404638 30.569542 73.165668 31.092891 C 72.926696 31.616239 72.663851 32.121344 72.377085 32.608561 C 72.09032 33.095776 71.779402 33.565143 71.444842 34.016227 C 71.110284 34.467309 70.751808 34.899905 70.369456 35.314855 C 69.982326 35.729807 69.578666 36.119143 69.158677 36.482226 C 68.738688 36.845309 68.302561 37.182319 67.849713 37.493534 C 67.396865 37.804747 66.927238 38.08995 66.44153 38.349295 C 65.955824 38.608641 65.453729 38.842034 64.935162 39.049511 C 64.416596 39.256988 63.882034 39.438573 63.330609 39.594181 C 62.779184 39.749788 62.211121 39.879565 61.626837 39.983304 C 61.042553 40.087043 60.442023 40.165012 59.82488 40.216882 C 59.207736 40.268752 58.573706 40.294396 57.923704 40.294396 C 57.507895 40.294396 57.089827 40.268928 56.67055 40.217398 C 56.251275 40.165868 55.830754 40.088162 55.410162 39.984854 C 54.989572 39.881548 54.569013 39.75261 54.149257 39.597281 C 53.729503 39.441952 53.310803 39.260206 52.894037 39.052612 C 52.477269 38.845016 52.062329 38.611469 51.650702 38.351362 C 51.239074 38.091257 50.830824 37.804846 50.426487 37.491983 C 50.02215 37.179122 49.621972 36.839821 49.227077 36.473958 C 48.832183 36.108093 48.442489 35.715878 48.05919 35.296769 L 48.05919 5.2706943 z M 27.698675 30.951297 C 28.114485 30.951297 28.532553 30.976765 28.951829 31.028295 C 29.371104 31.079825 29.791625 31.157016 30.212217 31.260322 C 30.632809 31.36363 31.053883 31.493085 31.473639 31.648412 C 31.893393 31.803741 32.312093 31.98497 32.728859 32.192565 C 33.145627 32.40016 33.560049 32.634225 33.971678 32.894331 C 34.383305 33.154438 34.792072 33.440848 35.196409 33.75371 C 35.600746 34.066573 36.000924 34.405872 36.395819 34.771736 C 36.790714 35.1376 37.180407 35.529816 37.563706 35.948925 L 37.563706 65.974999 L 29.476861 65.974999 C 28.310686 65.974999 27.234033 65.955972 26.247084 65.918672 C 25.260136 65.881372 24.362979 65.825842 23.555259 65.75124 C 22.747539 65.67664 22.029361 65.583052 21.400869 65.471154 C 21.086622 65.415204 20.79491 65.354528 20.52547 65.289253 C 20.25603 65.223983 20.008546 65.154047 19.783913 65.079447 C 19.334648 64.930258 18.891595 64.746154 18.454278 64.527026 C 18.016963 64.307897 17.585668 64.053866 17.160301 63.764798 C 16.734933 63.475732 16.315399 63.151769 15.901979 62.792765 C 15.488561 62.43376 15.081302 62.039864 14.679832 61.610925 C 14.345272 61.251925 14.031543 60.874025 13.738804 60.477144 C 13.446064 60.080262 13.174269 59.664438 12.92335 59.229675 C 12.67243 58.794911 12.442568 58.341163 12.23347 57.868517 C 12.02437 57.395872 11.835926 56.9042 11.668646 56.393672 C 11.501366 55.883145 11.354856 55.35355 11.229396 54.805138 C 11.103938 54.256728 10.99936 53.689726 10.91572 53.103434 C 10.832081 52.51714 10.769438 51.911699 10.727618 51.287524 C 10.685798 50.663347 10.66509 50.019985 10.66509 49.357926 C 10.66509 48.653909 10.68913 47.968053 10.73692 47.30017 C 10.78471 46.632289 10.856306 45.982684 10.951894 45.350935 C 11.047484 44.719187 11.166629 44.105319 11.310012 43.509704 C 11.453394 42.914089 11.62113 42.336476 11.812307 41.776993 C 12.003482 41.217512 12.218259 40.676151 12.457228 40.152803 C 12.696199 39.629453 12.959046 39.12435 13.245811 38.637133 C 13.532576 38.149917 13.843495 37.680551 14.178054 37.229467 C 14.512612 36.778384 14.871088 36.345272 15.25344 35.930322 C 15.640573 35.51537 16.043712 35.12655 16.463702 34.763468 C 16.883694 34.400385 17.320334 34.063375 17.773183 33.75216 C 18.226033 33.440945 18.695142 33.155744 19.180849 32.896398 C 19.666558 32.637053 20.168651 32.403659 20.687217 32.196183 C 21.205784 31.988705 21.740863 31.807121 22.292287 31.651513 C 22.843712 31.495905 23.411776 31.366128 23.996059 31.262389 C 24.580342 31.158652 25.180875 31.080682 25.798016 31.028812 C 26.415158 30.976942 27.048676 30.951297 27.698675 30.951297 z " />
    <path
       d="m 37.563706,-3.4574551 v 5.168e-4 H 48.05919 v -5.168e-4 z"
       style="fill:url(#linearGradient18)"
       id="path9" />
  </g>
</svg>
