<?xml version="1.0" encoding="UTF-8" standalone="no"?>
<!-- Created with Inkscape (http://www.inkscape.org/) -->

<svg
   width="100mm"
   height="100mm"
   viewBox="0 0 100 100"
   version="1.1"
   id="svg1"
   inkscape:version="1.3 (0e150ed, 2023-07-21)"
   sodipodi:docname="favicon.svg"
   inkscape:export-filename="favicon.svg"
   inkscape:export-xdpi="96"
   inkscape:export-ydpi="96"
   xmlns:inkscape="http://www.inkscape.org/namespaces/inkscape"
   xmlns:sodipodi="http://sodipodi.sourceforge.net/DTD/sodipodi-0.dtd"
   xmlns="http://www.w3.org/2000/svg"
   xmlns:svg="http://www.w3.org/2000/svg">
  <sodipodi:namedview
     id="namedview1"
     pagecolor="#ffffff"
     bordercolor="#000000"
     borderopacity="0.25"
     inkscape:showpageshadow="2"
     inkscape:pageopacity="0.0"
     inkscape:pagecheckerboard="0"
     inkscape:deskcolor="#d1d1d1"
     inkscape:document-units="mm"
     inkscape:zoom="1"
     inkscape:cx="219.5"
     inkscape:cy="264.5"
     inkscape:window-width="1512"
     inkscape:window-height="816"
     inkscape:window-x="0"
     inkscape:window-y="38"
     inkscape:window-maximized="0"
     inkscape:current-layer="layer1" />
  <defs
     id="defs1" />
  <g
     inkscape:label="Layer 1"
     inkscape:groupmode="layer"
     id="layer1"
     transform="translate(7.1886008,14.377202)">
    <path
       id="path5"
       style="font-size:25.4834px;font-family:'Gill Sans';-inkscape-font-specification:'Gill Sans';text-align:center;text-anchor:middle;opacity:0.920103;fill:#dc5656;fill-opacity:1;stroke-width:2.72055;stroke-linecap:square"
       d="m 36.666442,-14.377202 v 6.61e-4 38.548193 C 36.338538,23.739391 35.978217,23.323979 35.586907,22.928012 35.195594,22.532046 34.773186,22.155341 34.320993,21.800737 33.868798,21.446133 33.386517,21.113866 32.875964,20.805694 32.36541,20.49752 31.826679,20.213441 31.26029,19.956765 30.693901,19.70009 30.10033,19.470592 29.480629,19.270483 28.860928,19.070374 28.214732,18.899864 27.544241,18.76139 c -0.67049,-0.138473 -1.365282,-0.244923 -2.084037,-0.316695 -0.718756,-0.07177 -1.461138,-0.109091 -2.225635,-0.109091 -0.554065,0 -1.102294,0.01266 -1.644115,0.03702 -0.541821,0.02443 -1.077624,0.06092 -1.607201,0.109753 -0.529579,0.04884 -1.052955,0.109878 -1.570289,0.18314 -0.517337,0.07326 -1.028286,0.158852 -1.533378,0.25653 -0.505094,0.09768 -1.00422,0.207821 -1.497069,0.329918 -0.492852,0.122095 -0.979549,0.256128 -1.460159,0.402646 -0.480606,0.146518 -0.954879,0.305096 -1.423244,0.476034 -0.468366,0.170938 -0.930815,0.354067 -1.386938,0.549422 -0.456122,0.195359 -0.906146,0.403036 -1.3500246,0.622812 C 9.31827,21.522661 8.8806768,21.754888 8.449038,21.999084 8.0174015,22.243282 7.5916282,22.499395 7.172232,22.768012 6.7528382,23.036629 6.3394925,23.317291 5.9323389,23.610328 5.5251877,23.903364 5.1242696,24.208577 4.7293586,24.526032 4.3344481,24.843489 3.9459577,25.17325 3.56329,25.515126 3.1806224,25.857001 2.8039539,26.211312 2.4335289,26.577608 2.0631036,26.943903 1.6988627,27.322104 1.34068,27.712817 c -0.35538413,0.390714 -0.69976926,0.788596 -1.03294179,1.19273 -0.33317263,0.404137 -0.65541744,0.814842 -0.96637845,1.2324 -0.31096124,0.417558 -0.61046056,0.841752 -0.89921006,1.27273 -0.2887496,0.43098 -0.5667138,0.868661 -0.8332519,1.313061 -0.266538,0.444402 -0.5217568,0.895569 -0.7660833,1.353392 -0.2443266,0.457822 -0.477405,0.922478 -0.6995201,1.393722 -0.2221149,0.471245 -0.4336584,0.949386 -0.6335618,1.434054 -0.1999036,0.484666 -0.3887015,0.975633 -0.5663934,1.473723 -0.1776921,0.498087 -0.3437445,1.003203 -0.499225,1.514714 -0.1554805,0.511508 -0.2999978,1.029451 -0.4332668,1.554384 -0.1332688,0.524931 -0.2556459,1.05636 -0.3667033,1.594714 -0.1110575,0.538354 -0.210689,1.083931 -0.299535,1.635707 -0.088846,0.551775 -0.1669423,1.110178 -0.2335768,1.675376 -0.066635,0.565196 -0.1219853,1.137088 -0.1664083,1.715706 -0.044423,0.57862 -0.077634,1.163997 -0.099845,1.756037 -0.022212,0.592042 -0.033282,1.190905 -0.033282,1.796369 0,1.294426 0.041822,2.55566 0.1264703,3.784472 0.042324,0.614404 0.09566,1.220844 0.1591468,1.818847 0.063486,0.598001 0.137431,1.187662 0.2220795,1.76926 0.084648,0.581598 0.1798065,1.15514 0.2856172,1.720335 0.1058107,0.565193 0.2221821,1.121958 0.3491549,1.670748 0.1269729,0.54879 0.2645576,1.089435 0.4126927,1.621822 0.1481348,0.532387 0.3069331,1.056915 0.4762303,1.572896 0.169297,0.515984 0.3493086,1.023732 0.5397681,1.523309 0.1904592,0.499581 0.3910791,0.990548 0.6027006,1.473723 0.2116214,0.483176 0.4340599,0.958025 0.6668435,1.424797 0.2327836,0.466772 0.4764356,0.925503 0.7303812,1.375872 0.2539458,0.450366 0.5182059,0.89298 0.7933139,1.326945 0.2751078,0.433963 0.5605813,0.859137 0.85685158,1.276698 0.29626999,0.417559 0.60356196,0.827275 0.92099439,1.228432 0.3174322,0.401155 0.6453325,0.794094 0.98392689,1.178845 0.34139284,0.38475 0.68991544,0.757317 1.04564944,1.11802 0.3557339,0.360702 0.7185377,0.709298 1.0886129,1.045953 0.3700753,0.336656 0.7471601,0.661278 1.1315766,0.973886 0.384417,0.312609 0.7763876,0.61326 1.1751452,0.90182 0.3987589,0.288563 0.8044042,0.56524 1.217504,0.829755 0.4130987,0.264514 0.8336319,0.51722 1.2610727,0.757688 0.4274396,0.240467 0.8616487,0.46854 1.3034305,0.684959 0.4417819,0.216422 0.8908778,0.421182 1.3469998,0.613556 0.456124,0.192375 0.919499,0.3725 1.389964,0.540828 0.470465,0.168328 0.948121,0.32448 1.432927,0.468762 0.484806,0.14428 0.976744,0.276462 1.47589,0.396694 0.499147,0.12024 1.005365,0.228442 1.518855,0.32463 0.513486,0.09619 1.033989,0.180421 1.561816,0.252562 0.527831,0.07213 1.063217,0.132402 1.605387,0.180496 1.084341,0.09619 2.197353,0.144133 3.339059,0.144133 H 36.666442 48.956454 V 47.074187 c 0.327904,0.432259 0.688225,0.847673 1.079535,1.243639 0.391313,0.395964 0.813721,0.77201 1.265914,1.126614 0.452195,0.354604 0.93387,0.687531 1.444424,0.995705 0.510553,0.308174 1.04989,0.591591 1.616278,0.848267 0.56639,0.256673 1.159961,0.486835 1.779662,0.686944 0.619702,0.200108 1.265293,0.370617 1.935782,0.509091 0.670491,0.138474 1.365888,0.244926 2.084643,0.316695 0.718756,0.07178 1.461139,0.108431 2.225635,0.108431 0.554066,0 1.102294,-0.0119 1.644115,-0.03636 0.541822,-0.02442 1.077018,-0.06092 1.606596,-0.109752 0.52958,-0.04884 1.053558,-0.109877 1.570895,-0.183142 0.517335,-0.07326 1.028284,-0.15885 1.533376,-0.256529 0.505095,-0.09768 1.004221,-0.20782 1.49707,-0.329919 0.492852,-0.122095 0.979549,-0.256127 1.460158,-0.402645 0.480607,-0.146519 0.95488,-0.305095 1.423245,-0.476035 0.468365,-0.170937 0.930815,-0.354064 1.386937,-0.549422 0.456123,-0.195357 0.906146,-0.403034 1.350026,-0.622812 0.44388,-0.219777 0.881475,-0.452002 1.313113,-0.6962 0.431638,-0.244195 0.857411,-0.500311 1.276806,-0.768926 0.419393,-0.268617 0.832135,-0.549942 1.239288,-0.842978 0.407152,-0.293036 0.808676,-0.598249 1.203585,-0.915705 0.39491,-0.317454 0.783402,-0.646557 1.166069,-0.988432 0.382667,-0.341875 0.759337,-0.696188 1.129761,-1.062481 0.370425,-0.366296 0.734668,-0.745157 1.092849,-1.135872 0.355383,-0.390712 0.69977,-0.787932 1.032942,-1.192069 0.333172,-0.404134 0.655418,-0.814842 0.966379,-1.232399 0.310959,-0.417557 0.610461,-0.84175 0.899209,-1.272731 0.28875,-0.430978 0.566714,-0.868659 0.833252,-1.313061 0.266539,-0.4444 0.521756,-0.89557 0.766084,-1.353391 0.244325,-0.457824 0.477404,-0.922478 0.699519,-1.393722 0.222116,-0.471245 0.433054,-0.949389 0.632958,-1.434053 0.199903,-0.484668 0.3887,-0.975635 0.566393,-1.473723 0.177692,-0.498087 0.344349,-1.003204 0.499829,-1.514715 0.155482,-0.511509 0.299997,-1.029452 0.433268,-1.554384 0.133269,-0.52493 0.255645,-1.057023 0.366703,-1.595375 0.111056,-0.538354 0.210689,-1.083271 0.299535,-1.635045 0.08884,-0.551776 0.166942,-1.110181 0.233576,-1.675376 0.06664,-0.565198 0.121986,-1.137089 0.166409,-1.715708 0.04443,-0.578616 0.07763,-1.163996 0.09984,-1.756037 0.02221,-0.592039 0.03328,-1.190906 0.03328,-1.796367 0,-1.294426 -0.04242,-2.555661 -0.127076,-3.784472 -0.04232,-0.614407 -0.09506,-1.220846 -0.158541,-1.818848 -0.06349,-0.598001 -0.137431,-1.187662 -0.22208,-1.76926 -0.08465,-0.581599 -0.179807,-1.15514 -0.285618,-1.720335 C 91.912276,9.9660927 91.795902,9.4093301 91.668929,8.8605408 91.541955,8.3117502 91.404372,7.7711044 91.256237,7.2387185 91.108102,6.7063314 90.949304,6.181805 90.780007,5.6658213 90.610709,5.1498401 90.430698,4.6420921 90.240239,4.1425118 90.049779,3.6429341 89.848554,3.1519656 89.636933,2.6687897 89.425311,2.1856144 89.203478,1.710103 88.970694,1.2433317 88.737913,0.77656036 88.49426,0.31848935 88.240314,-0.13187827 87.986368,-0.58224576 87.722108,-1.0248598 87.447,-1.4588236 c -0.275108,-0.4339637 -0.561188,-0.8597986 -0.857457,-1.2773585 -0.29627,-0.4175597 -0.602957,-0.8266155 -0.92039,-1.2277715 -0.317431,-0.401156 -0.645332,-0.7940937 -0.983927,-1.1788459 -0.341392,-0.384749 -0.689915,-0.757317 -1.045648,-1.1180193 -0.355735,-0.360702 -0.718539,-0.7092976 -1.088613,-1.0459528 -0.370076,-0.3366555 -0.747766,-0.6612781 -1.132182,-0.9738867 -0.384416,-0.3126084 -0.775783,-0.6132587 -1.174541,-0.9018204 -0.398757,-0.2885617 -0.804405,-0.5652392 -1.217504,-0.8297543 -0.413097,-0.264515 -0.833631,-0.517219 -1.261072,-0.757688 -0.427439,-0.240468 -0.862254,-0.468539 -1.304036,-0.68496 -0.44178,-0.216421 -0.890272,-0.42118 -1.346394,-0.613555 -0.456123,-0.192374 -0.9195,-0.3725 -1.389964,-0.540828 -0.470463,-0.168327 -0.948121,-0.32448 -1.432927,-0.468761 -0.484804,-0.144281 -0.976744,-0.277122 -1.47589,-0.397357 -0.499147,-0.120233 -1.005365,-0.228441 -1.518855,-0.324628 -0.513486,-0.09619 -1.034592,-0.179762 -1.562422,-0.251902 -0.52783,-0.07214 -1.06261,-0.132403 -1.604781,-0.180496 -1.084343,-0.09619 -2.197351,-0.144133 -3.339059,-0.144133 H 48.956454 v -6.61e-4 z m 12.290012,11.1669692 h 9.469541 c 1.365574,0 2.626305,0.023685 3.782007,0.071405 1.155701,0.04772 2.20625,0.1194351 3.152076,0.2148765 0.945825,0.095441 1.786798,0.2151835 2.522749,0.3583479 0.367976,0.071582 0.709569,0.1485533 1.025076,0.2320667 0.315507,0.083514 0.604705,0.1729857 0.867743,0.2684304 0.526077,0.1908753 1.045493,0.4270819 1.557583,0.7074398 0.512089,0.2803577 1.017126,0.60537039 1.515222,0.97520889 0.498099,0.36983862 0.989367,0.78432183 1.473471,1.24363938 0.484104,0.45931763 0.961006,0.96327513 1.431111,1.51206973 0.391765,0.4593114 0.759132,0.9428034 1.101926,1.4505822 0.342794,0.5077787 0.661057,1.039791 0.954881,1.5960368 0.293824,0.5562458 0.562984,1.13678 0.807837,1.7414915 0.244851,0.6047128 0.465516,1.2337665 0.661397,1.8869475 0.195882,0.6531785 0.366837,1.3307545 0.513748,2.0324015 0.146912,0.701648 0.269368,1.42708 0.367309,2.177195 0.09794,0.750115 0.171899,1.524728 0.220869,2.323312 0.04897,0.798583 0.07322,1.621053 0.07322,2.468105 0,0.900729 -0.02815,1.778895 -0.08411,2.633394 -0.05596,0.854502 -0.139798,1.685621 -0.251731,2.49389 -0.111934,0.808273 -0.252056,1.593668 -0.419953,2.355709 -0.1679,0.762041 -0.363708,1.501052 -0.587574,2.216866 -0.223863,0.715811 -0.475361,1.408438 -0.75519,2.078021 -0.279832,0.669582 -0.587618,1.315823 -0.923416,1.939178 -0.335796,0.623353 -0.699875,1.223871 -1.091639,1.800996 -0.391761,0.577124 -0.811529,1.130596 -1.259256,1.661491 -0.453322,0.530898 -0.926,1.029022 -1.417799,1.493558 -0.491799,0.464536 -1.002496,0.895713 -1.532772,1.293888 -0.530276,0.398172 -1.080201,0.763066 -1.648955,1.094877 -0.568753,0.331813 -1.156696,0.630421 -1.763928,0.895871 -0.607231,0.26545 -1.233193,0.497774 -1.878901,0.696862 -0.645709,0.199086 -1.310899,0.365126 -1.995085,0.497851 -0.684185,0.132726 -1.387394,0.232481 -2.110057,0.298845 -0.722664,0.06636 -1.465101,0.09917 -2.226241,0.09917 -0.486904,0 -0.976454,-0.03258 -1.467419,-0.09851 C 58.549231,41.43535 58.056809,41.335933 57.564303,41.203758 57.071799,41.071587 56.579332,40.906621 56.087806,40.70789 55.596282,40.509159 55.105992,40.276629 54.617967,40.011029 54.12994,39.745427 53.644053,39.446622 53.162046,39.113836 52.680037,38.781052 52.201984,38.414612 51.728513,38.014329 51.255042,37.614049 50.786441,37.17994 50.324027,36.711848 49.861614,36.243753 49.405289,35.741945 48.956454,35.205729 Z M 25.114679,29.646045 c 0.486906,0 0.976456,0.03258 1.46742,0.09851 0.490963,0.06593 0.983385,0.164689 1.47589,0.29686 0.492505,0.132175 0.985575,0.297802 1.477101,0.496531 0.491524,0.198731 0.981814,0.430599 1.469839,0.6962 0.488027,0.265601 0.973307,0.565068 1.455317,0.897853 0.482007,0.332786 0.960666,0.699225 1.434137,1.099507 0.473471,0.400283 0.942071,0.834389 1.404486,1.302483 0.462414,0.468094 0.918737,0.969903 1.367573,1.506119 v 38.41596 h -9.469541 c -1.365568,0 -2.626309,-0.02434 -3.782007,-0.07206 -1.155697,-0.04772 -2.206251,-0.118769 -3.152076,-0.214216 -0.945824,-0.09544 -1.786797,-0.215183 -2.522749,-0.358348 -0.367977,-0.07158 -0.709567,-0.149214 -1.025076,-0.232728 -0.315509,-0.08351 -0.605308,-0.172985 -0.868349,-0.26843 -0.52608,-0.190875 -1.044887,-0.426421 -1.556977,-0.706778 C 13.77758,72.323147 13.272541,71.998134 12.774445,71.628295 12.276347,71.258458 11.785081,70.843973 11.300974,70.384657 10.816869,69.925338 10.339977,69.42138 9.8698629,68.872587 9.4780995,68.413275 9.1107288,67.929782 8.7679371,67.422005 8.4251441,66.914226 8.1068774,66.382212 7.813056,65.825968 7.5192335,65.269722 7.2500695,64.689188 7.0052197,64.084475 6.7603676,63.479764 6.5397033,62.850709 6.3438216,62.197529 6.1479399,61.54435 5.9763795,60.866776 5.8294682,60.165127 5.6825593,59.46348 5.5601004,58.738046 5.4621596,57.987932 5.3642199,57.237816 5.2908662,56.463203 5.2418958,55.664621 c -0.048971,-0.798585 -0.073219,-1.621715 -0.073219,-2.468767 0,-0.900733 0.02815,-1.778231 0.084112,-2.632734 0.055961,-0.8545 0.1397987,-1.685618 0.2517305,-2.49389 0.111934,-0.808271 0.2514506,-1.593666 0.4193493,-2.355708 0.1678976,-0.762042 0.3643132,-1.501051 0.5881779,-2.216865 0.2238622,-0.715811 0.475362,-1.408439 0.7551901,-2.078021 0.2798305,-0.669585 0.5876193,-1.315824 0.9234157,-1.939179 0.3357963,-0.623354 0.6998765,-1.22387 1.0916387,-1.800996 0.391761,-0.577125 0.81153,-1.131257 1.259257,-1.662152 0.453325,-0.530898 0.925393,-1.028362 1.417194,-1.492896 0.491802,-0.464536 1.003099,-0.895713 1.533377,-1.293888 0.530279,-0.398175 1.079596,-0.763067 1.64835,-1.094879 0.568756,-0.331811 1.156697,-0.63042 1.763928,-0.895869 0.607232,-0.265452 1.233799,-0.497774 1.879506,-0.696862 0.645708,-0.199088 1.310901,-0.365127 1.995085,-0.497853 0.684184,-0.132723 1.387397,-0.23248 2.110057,-0.298843 0.722661,-0.06636 1.464499,-0.09917 2.225635,-0.09917 z" />
  </g>
</svg>
