<?xml version="1.0" encoding="UTF-8" standalone="no"?>
<!-- Created with Inkscape (http://www.inkscape.org/) -->

<svg
   width="210mm"
   height="297mm"
   viewBox="0 0 210 297"
   version="1.1"
   id="svg1"
   inkscape:version="1.3 (0e150ed, 2023-07-21)"
   sodipodi:docname="dP_icon.svg"
   xmlns:inkscape="http://www.inkscape.org/namespaces/inkscape"
   xmlns:sodipodi="http://sodipodi.sourceforge.net/DTD/sodipodi-0.dtd"
   xmlns="http://www.w3.org/2000/svg"
   xmlns:svg="http://www.w3.org/2000/svg">
  <sodipodi:namedview
     id="namedview1"
     pagecolor="#ffffff"
     bordercolor="#000000"
     borderopacity="0.25"
     inkscape:showpageshadow="2"
     inkscape:pageopacity="0.0"
     inkscape:pagecheckerboard="0"
     inkscape:deskcolor="#d1d1d1"
     inkscape:document-units="mm"
     inkscape:zoom="2.356611"
     inkscape:cx="250.14735"
     inkscape:cy="419.45828"
     inkscape:window-width="1512"
     inkscape:window-height="816"
     inkscape:window-x="1920"
     inkscape:window-y="38"
     inkscape:window-maximized="0"
     inkscape:current-layer="layer1" />
  <defs
     id="defs1" />
  <g
     inkscape:label="Layer 1"
     inkscape:groupmode="layer"
     id="layer1">
    <path
       style="font-size:25.4834px;font-family:'Gill Sans';-inkscape-font-specification:'Gill Sans';text-align:center;text-anchor:middle;opacity:0.920103;fill:#ebd50f;stroke-width:2.22267;stroke-linecap:square;fill-opacity:1"
       d="m 82.057588,93.346818 h 2.277081 v 17.382962 h -4.840352 c -1.692257,0 -3.044404,-0.53505 -4.05644,-1.60515 -1.003741,-1.07011 -1.505611,-2.50521 -1.505611,-4.3053 0,-1.68397 0.526756,-3.0693 1.580269,-4.15599 1.061809,-1.086693 2.413955,-1.63004 4.05644,-1.63004 1.133152,0 2.002586,0.413328 2.488613,1.01445 z m 0,15.441842 10e-7,-6.6778 c -0.665274,-0.74569 -1.41851,-1.11156 -2.140208,-1.11156 -1.128171,0 -2.02822,0.36915 -2.700146,1.10744 -0.66363,0.73829 -0.995445,1.73373 -0.995445,2.98633 0,1.17795 0.290338,2.08629 0.871015,2.72503 0.348406,0.38159 0.71755,0.63875 1.107433,0.77147 0.389883,0.13273 1.090842,0.19909 2.102878,0.19909 z"
       id="text1"
       aria-label="d"
       sodipodi:nodetypes="cccscscsccccscscssc"
       inkscape:export-filename="dP_icon.svg"
       inkscape:export-xdpi="96"
       inkscape:export-ydpi="96" />
    <path
       style="font-size:25.4834px;font-family:'Gill Sans';-inkscape-font-specification:'Gill Sans';text-align:center;text-anchor:middle;opacity:0.920103;fill:#ebd50f;stroke-width:2.22267;stroke-linecap:square;fill-opacity:1"
       d="M 84.334669,110.72978 H 82.057588 V 93.346823 h 4.840353 c 1.69226,0 3.0444,0.53505 4.05644,1.60515 1.00374,1.070109 1.50561,2.50521 1.50561,4.3053 0,1.683967 -0.52676,3.069297 -1.58027,4.155987 -1.06181,1.08669 -2.41395,1.63004 -4.05644,1.63004 -1.133151,0 -2.002585,-0.41333 -2.488612,-1.01445 z m 0,-15.441837 -1e-6,6.677797 c 0.665274,0.74569 1.41851,1.11156 2.140208,1.11156 1.128175,0 2.028225,-0.36915 2.700145,-1.10744 0.66363,-0.73829 0.99545,-1.73373 0.99545,-2.986327 0,-1.17795 -0.29034,-2.08629 -0.87102,-2.72503 -0.3484,-0.38159 -0.71755,-0.63875 -1.10743,-0.77147 -0.38988,-0.13273 -1.09084,-0.19909 -2.10288,-0.19909 z"
       id="text1-5"
       aria-label="d"
       sodipodi:nodetypes="cccscscsccccscscssc" />
  </g>
</svg>
