<?xml version="1.0" encoding="UTF-8" standalone="no"?>
<svg
   version="1.2"
   width="638.44mm"
   height="635.53mm"
   viewBox="0 0 63844 63553"
   preserveAspectRatio="xMidYMid"
   fill-rule="evenodd"
   stroke-width="28.222"
   stroke-linejoin="round"
   xml:space="preserve"
   id="svg4886"
   sodipodi:docname="HammerThrower1a.svg"
   inkscape:version="1.2.2 (732a01da63, 2022-12-09, custom)"
   xmlns:inkscape="http://www.inkscape.org/namespaces/inkscape"
   xmlns:sodipodi="http://sodipodi.sourceforge.net/DTD/sodipodi-0.dtd"
   xmlns="http://www.w3.org/2000/svg"
   xmlns:svg="http://www.w3.org/2000/svg"
   xmlns:ooo="http://xml.openoffice.org/svg/export"><sodipodi:namedview
   id="namedview4888"
   pagecolor="#ffffff"
   bordercolor="#000000"
   borderopacity="0.25"
   inkscape:showpageshadow="2"
   inkscape:pageopacity="0.0"
   inkscape:pagecheckerboard="0"
   inkscape:deskcolor="#d1d1d1"
   inkscape:document-units="mm"
   showgrid="false"
   inkscape:zoom="0.5894754"
   inkscape:cx="393.57028"
   inkscape:cy="1630.2631"
   inkscape:window-width="1920"
   inkscape:window-height="1031"
   inkscape:window-x="0"
   inkscape:window-y="25"
   inkscape:window-maximized="1"
   inkscape:current-layer="layer17" />
 <defs
   class="ClipPathGroup"
   id="defs4527">
  <clipPath
   id="presentation_clip_path"
   clipPathUnits="userSpaceOnUse">
   <rect
   x="0"
   y="0"
   width="63844"
   height="63553"
   id="rect4521" />
  </clipPath>
  <clipPath
   id="presentation_clip_path_shrink"
   clipPathUnits="userSpaceOnUse">
   <rect
   x="63"
   y="63"
   width="63717"
   height="63426"
   id="rect4524" />
  </clipPath>
 </defs>
 <defs
   class="TextShapeIndex"
   id="defs4531">
  <g
   ooo:slide="id1"
   ooo:id-list="id3 id4 id5 id6 id7 id8 id9 id10 id11 id12 id13 id14 id15 id16 id17 id18 id19 id20 id21 id22 id23 id24 id25 id26 id27 id28 id29 id30 id31 id32 id33 id34 id35 id36 id37 id38 id39 id40 id41 id42 id43 id44 id45 id46"
   id="g4529" />
 </defs>
 <defs
   class="EmbeddedBulletChars"
   id="defs4563">
  <g
   id="bullet-char-template-57356"
   transform="scale(0.00048828125,-0.00048828125)">
   <path
   d="M 580,1141 L 1163,571 580,0 -4,571 580,1141 Z"
   id="path4533" />
  </g>
  <g
   id="bullet-char-template-57354"
   transform="scale(0.00048828125,-0.00048828125)">
   <path
   d="M 8,1128 L 1137,1128 1137,0 8,0 8,1128 Z"
   id="path4536" />
  </g>
  <g
   id="bullet-char-template-10146"
   transform="scale(0.00048828125,-0.00048828125)">
   <path
   d="M 174,0 L 602,739 174,1481 1456,739 174,0 Z M 1358,739 L 309,1346 659,739 1358,739 Z"
   id="path4539" />
  </g>
  <g
   id="bullet-char-template-10132"
   transform="scale(0.00048828125,-0.00048828125)">
   <path
   d="M 2015,739 L 1276,0 717,0 1260,543 174,543 174,936 1260,936 717,1481 1274,1481 2015,739 Z"
   id="path4542" />
  </g>
  <g
   id="bullet-char-template-10007"
   transform="scale(0.00048828125,-0.00048828125)">
   <path
   d="M 0,-2 C -7,14 -16,27 -25,37 L 356,567 C 262,823 215,952 215,954 215,979 228,992 255,992 264,992 276,990 289,987 310,991 331,999 354,1012 L 381,999 492,748 772,1049 836,1024 860,1049 C 881,1039 901,1025 922,1006 886,937 835,863 770,784 769,783 710,716 594,584 L 774,223 C 774,196 753,168 711,139 L 727,119 C 717,90 699,76 672,76 641,76 570,178 457,381 L 164,-76 C 142,-110 111,-127 72,-127 30,-127 9,-110 8,-76 1,-67 -2,-52 -2,-32 -2,-23 -1,-13 0,-2 Z"
   id="path4545" />
  </g>
  <g
   id="bullet-char-template-10004"
   transform="scale(0.00048828125,-0.00048828125)">
   <path
   d="M 285,-33 C 182,-33 111,30 74,156 52,228 41,333 41,471 41,549 55,616 82,672 116,743 169,778 240,778 293,778 328,747 346,684 L 369,508 C 377,444 397,411 428,410 L 1163,1116 C 1174,1127 1196,1133 1229,1133 1271,1133 1292,1118 1292,1087 L 1292,965 C 1292,929 1282,901 1262,881 L 442,47 C 390,-6 338,-33 285,-33 Z"
   id="path4548" />
  </g>
  <g
   id="bullet-char-template-9679"
   transform="scale(0.00048828125,-0.00048828125)">
   <path
   d="M 813,0 C 632,0 489,54 383,161 276,268 223,411 223,592 223,773 276,916 383,1023 489,1130 632,1184 813,1184 992,1184 1136,1130 1245,1023 1353,916 1407,772 1407,592 1407,412 1353,268 1245,161 1136,54 992,0 813,0 Z"
   id="path4551" />
  </g>
  <g
   id="bullet-char-template-8226"
   transform="scale(0.00048828125,-0.00048828125)">
   <path
   d="M 346,457 C 273,457 209,483 155,535 101,586 74,649 74,723 74,796 101,859 155,911 209,963 273,989 346,989 419,989 480,963 531,910 582,859 608,796 608,723 608,648 583,586 532,535 482,483 420,457 346,457 Z"
   id="path4554" />
  </g>
  <g
   id="bullet-char-template-8211"
   transform="scale(0.00048828125,-0.00048828125)">
   <path
   d="M -4,459 L 1135,459 1135,606 -4,606 -4,459 Z"
   id="path4557" />
  </g>
  <g
   id="bullet-char-template-61548"
   transform="scale(0.00048828125,-0.00048828125)">
   <path
   d="M 173,740 C 173,903 231,1043 346,1159 462,1274 601,1332 765,1332 928,1332 1067,1274 1183,1159 1299,1043 1357,903 1357,740 1357,577 1299,437 1183,322 1067,206 928,148 765,148 601,148 462,206 346,322 231,437 173,577 173,740 Z"
   id="path4560" />
  </g>
 </defs>
 
 <g
   inkscape:groupmode="layer"
   id="layer17"
   inkscape:label="Layer 1"
   style="display:inline"><path
     fill="#ffa6a6"
     stroke="none"
     d="m 33270,63257 c 1011,-7 1976,-16 2143,-21 167,-4 501,-11 741,-14 240,-3 561,-16 714,-29 352,-29 833,-51 1720,-79 386,-12 904,-40 1151,-63 248,-23 622,-53 833,-68 211,-15 616,-45 900,-68 284,-22 701,-51 926,-64 226,-13 535,-36 688,-53 444,-47 976,-107 1190,-133 109,-14 294,-32 410,-40 248,-17 612,-57 874,-95 101,-15 298,-37 436,-51 138,-13 430,-49 648,-79 219,-30 522,-71 675,-92 569,-76 1732,-257 2023,-315 102,-21 276,-52 385,-69 109,-17 251,-42 315,-56 65,-15 285,-49 490,-77 205,-27 563,-87 795,-132 233,-45 525,-99 649,-120 204,-34 502,-98 820,-174 211,-51 591,-129 754,-155 87,-14 226,-49 308,-78 82,-29 201,-60 264,-68 125,-16 390,-87 721,-192 115,-36 323,-93 463,-127 140,-33 439,-116 665,-183 225,-68 482,-142 569,-165 88,-23 326,-101 529,-174 204,-73 471,-168 595,-211 693,-244 1233,-454 1537,-598 96,-46 198,-83 227,-83 53,0 471,-206 902,-446 134,-75 250,-136 257,-136 25,0 832,-515 1056,-674 1946,-1384 2404,-3248 1135,-4624 -246,-267 -508,-515 -806,-761 -511,-424 -626,-512 -855,-653 -117,-72 -277,-170 -357,-220 -80,-49 -229,-134 -331,-188 -102,-53 -340,-183 -529,-287 -302,-167 -938,-477 -977,-477 -8,0 -101,-40 -207,-89 -178,-82 -290,-126 -602,-237 -290,-103 -629,-234 -708,-274 -107,-55 -1154,-410 -1475,-501 -131,-37 -327,-95 -436,-129 -181,-57 -335,-99 -1032,-281 -124,-32 -350,-92 -503,-133 -819,-221 -1007,-270 -1164,-302 -95,-19 -256,-58 -357,-86 -182,-51 -826,-185 -1191,-247 -102,-17 -246,-52 -321,-78 -75,-25 -218,-55 -318,-66 -99,-10 -259,-41 -353,-68 -95,-27 -205,-49 -245,-49 -40,0 -142,-17 -225,-38 -475,-117 -1429,-297 -1904,-359 -454,-59 -790,-109 -1343,-199 -464,-75 -752,-113 -1092,-144 -134,-13 -301,-35 -370,-51 -139,-31 -517,-85 -1145,-161 -225,-28 -553,-69 -727,-91 -451,-58 -961,-113 -1482,-161 -247,-23 -545,-53 -661,-67 -185,-22 -448,-41 -887,-66 -65,-4 -279,-14 -476,-23 -196,-9 -440,-27 -542,-42 -102,-14 -328,-32 -503,-40 -175,-8 -657,-32 -1071,-53 -619,-31 -1024,-42 -1429,-39 -22,0 -126,-7 -232,-17 -237,-22 -243,0 -55,201 75,80 155,177 178,214 68,109 402,395 525,449 62,27 145,73 185,103 155,112 960,358 1269,387 257,24 407,73 579,188 83,56 188,125 234,153 45,28 136,91 201,138 66,48 160,110 211,138 159,87 563,537 727,811 51,83 109,171 130,194 37,42 55,254 47,543 -4,118 -16,141 -139,264 -74,75 -152,169 -173,210 -94,180 -1078,706 -1323,706 -50,0 -128,19 -174,43 -87,45 -311,115 -618,194 -328,84 -815,29 -1136,-128 -87,-43 -242,-115 -344,-162 -193,-87 -295,-193 -496,-516 -161,-256 -631,-661 -911,-783 -357,-156 -1233,-474 -1307,-474 -427,0 -1002,-1005 -914,-1595 23,-148 -41,-473 -125,-641 -36,-72 -80,-186 -97,-251 -41,-153 -64,-179 -188,-212 -96,-26 -282,-126 -455,-244 -71,-48 -228,-53 -680,-22 -22,1 -718,2 -1548,3 -1346,0 -2584,23 -3558,65 -181,7 -537,20 -791,28 -253,7 -550,20 -661,28 -111,8 -326,18 -479,23 -153,5 -367,23 -475,40 -109,17 -234,25 -278,19 -44,-7 -182,3 -305,22 -124,19 -305,42 -403,51 -127,13 -202,36 -264,82 -48,35 -151,94 -228,130 -126,60 -338,198 -732,477 -73,52 -270,166 -437,253 -167,88 -501,295 -741,462 -240,167 -490,330 -555,361 -66,32 -149,77 -186,101 -36,24 -203,134 -370,245 -167,111 -341,216 -384,234 -44,19 -115,65 -158,104 -44,39 -173,127 -286,195 -230,137 -821,576 -984,729 -59,55 -163,133 -233,172 -153,88 -187,146 -164,278 20,123 -20,209 -165,358 -646,658 -1322,1129 -1677,1168 -516,57 -777,1418 -411,2139 22,44 54,161 69,261 37,231 96,345 285,552 84,91 182,208 217,259 210,301 510,555 657,555 15,0 62,36 103,80 53,56 100,79 159,79 68,0 104,23 182,119 54,66 112,119 130,119 225,0 366,810 199,1139 -120,234 -845,587 -1004,489 -22,-14 -165,10 -438,72 -314,71 -1536,-81 -1765,-220 -69,-42 -157,-84 -197,-94 -39,-10 -112,-46 -163,-80 -49,-32 -104,-61 -120,-61 -143,0 -756,-437 -756,-537 0,-16 -59,-154 -130,-308 -72,-154 -184,-438 -250,-630 -110,-325 -250,-619 -311,-657 -14,-9 -50,-68 -80,-133 -62,-130 -210,-262 -486,-433 -283,-174 -645,-532 -951,-941 -355,-472 -401,-627 -289,-973 91,-279 204,-489 315,-581 48,-40 132,-135 187,-212 196,-271 679,-763 883,-900 109,-73 252,-182 318,-243 117,-107 505,-371 794,-538 266,-154 322,-217 345,-382 15,-115 43,-177 127,-283 209,-265 431,-500 580,-614 225,-172 375,-338 443,-487 33,-73 79,-150 104,-170 24,-20 67,-80 94,-134 63,-122 206,-181 507,-206 l 220,-18 93,-132 c 51,-72 143,-180 205,-239 138,-132 140,-153 13,-135 -54,7 -200,27 -324,44 -218,30 -288,42 -926,156 -167,30 -393,67 -502,83 -110,17 -282,47 -384,67 -102,21 -316,62 -476,91 -160,29 -309,59 -331,68 -22,9 -111,26 -198,39 -176,26 -377,68 -754,156 -139,33 -371,86 -516,119 -146,33 -408,99 -582,146 -175,47 -395,103 -490,123 -95,21 -268,67 -384,101 -117,35 -318,88 -449,120 -131,31 -381,99 -556,150 -175,52 -367,104 -428,116 -113,23 -781,215 -921,265 -44,16 -193,70 -331,121 -138,51 -317,115 -397,141 -238,80 -1093,424 -1156,465 -33,21 -72,39 -87,39 -156,0 -1741,825 -2055,1070 -75,59 -189,139 -252,178 -304,187 -768,557 -802,639 -20,47 -67,102 -104,122 -251,133 -915,974 -915,1157 0,34 -28,118 -63,187 -89,176 -153,491 -192,935 -34,398 233,1124 548,1488 52,60 167,204 255,321 137,180 260,313 529,575 146,142 432,342 541,379 69,22 203,103 298,179 96,76 343,226 551,334 384,199 567,323 852,579 104,93 249,185 412,261 138,65 358,169 489,232 347,168 971,422 1297,531 101,33 268,96 370,138 169,70 509,185 1786,600 240,79 651,204 913,280 262,75 535,159 608,185 135,50 454,127 1098,266 375,81 447,98 834,197 131,33 309,75 396,92 355,69 564,114 715,152 87,22 229,50 317,62 87,12 272,47 410,78 139,30 370,73 516,94 145,21 324,51 397,64 73,14 222,37 331,53 109,15 282,45 384,66 101,21 333,57 514,80 181,23 337,47 346,53 24,15 292,56 867,134 641,87 779,107 971,143 305,57 479,80 834,107 196,15 458,39 582,54 123,15 332,37 463,50 502,49 883,84 1158,107 156,13 296,31 310,39 31,20 701,85 1244,121 225,15 505,46 622,68 138,27 407,45 780,50 583,9 843,23 1191,65 109,13 305,23 436,22 131,0 328,13 437,29 182,27 643,53 1177,67 117,2 627,19 1137,37 509,18 1063,38 1230,43 167,6 447,17 622,25 174,8 445,19 601,23 156,5 293,18 304,30 12,11 117,14 233,4 117,-9 1039,-24 2050,-31 z"
     id="path4586"
     style="display:inline" /><g
     id="layer16"
     inkscape:label="Shoes-left"
     style="display:inline"><path
       fill="#ffff00"
       stroke="none"
       d="m 16273,57472 c 10,-33 37,-81 60,-108 34,-38 36,-57 10,-98 -43,-69 -40,-105 12,-163 46,-51 27,-173 -52,-337 -89,-183 -426,-304 -504,-181 -51,80 -83,326 -45,350 55,34 26,108 -76,193 -134,111 -198,108 -316,-14 -71,-73 -173,-130 -374,-210 -812,-324 -1421,-791 -1666,-1278 -32,-65 -74,-137 -92,-159 -17,-21 -72,-140 -121,-264 -198,-503 -347,-834 -444,-988 -56,-90 -114,-200 -130,-245 -15,-45 -105,-177 -200,-294 -94,-118 -222,-298 -283,-401 -153,-254 -395,-479 -520,-479 -79,0 -97,-13 -128,-87 -85,-204 -650,-405 -777,-277 -18,18 -53,32 -78,33 -130,1 -47,126 113,172 251,71 441,169 556,288 58,60 193,183 299,274 106,91 234,219 283,285 50,65 162,211 249,324 204,264 240,335 454,902 43,114 117,275 164,357 48,82 102,185 121,229 19,44 76,142 126,218 51,76 112,183 137,238 72,156 330,487 471,603 212,174 659,497 796,574 70,40 169,96 220,126 327,187 920,359 1303,377 175,9 276,26 317,55 81,56 93,55 115,-15 z"
       id="path4600"
       style="display:inline;fill:#00ff00" /><path
       fill="#ffff00"
       stroke="none"
       d="m 15280,57796 c 245,-32 359,-63 350,-95 -10,-35 -163,-86 -266,-88 -48,-2 -122,-20 -164,-42 -43,-22 -161,-52 -264,-66 -215,-31 -312,-78 -766,-372 -894,-582 -1310,-1021 -1532,-1619 -31,-83 -67,-172 -80,-198 -13,-26 -51,-118 -84,-206 -113,-295 -422,-896 -524,-1017 -55,-66 -124,-156 -152,-200 -88,-138 -541,-633 -615,-672 -39,-20 -144,-89 -233,-152 -299,-212 -659,-228 -838,-37 -264,284 28,837 734,1390 117,92 255,211 306,265 51,53 126,114 166,136 45,23 100,93 140,176 36,76 137,219 225,319 87,99 189,242 227,317 38,75 83,155 102,176 18,22 77,141 131,265 54,124 128,256 164,294 36,38 95,164 131,278 114,364 178,474 320,555 70,39 181,105 246,145 66,41 175,87 243,102 68,15 219,69 335,121 116,51 227,92 247,92 20,0 79,23 131,51 75,41 187,57 551,78 251,15 463,33 472,42 8,8 34,9 57,2 23,-8 131,-25 240,-40 z"
       id="path4593" /><path
       fill="#ffff00"
       stroke="none"
       d="m 15529,56706 c 15,-88 9,-103 -57,-143 -75,-45 -369,-234 -538,-346 -51,-34 -113,-62 -137,-62 -24,0 -80,-52 -124,-116 -44,-64 -154,-166 -244,-226 l -164,-109 -240,7 c -279,9 -290,25 -144,208 210,262 332,377 463,435 74,33 143,73 153,90 21,33 294,164 439,211 51,16 187,71 304,121 236,103 259,98 289,-70 z"
       id="path4607" /><path
       fill="#ffff00"
       stroke="none"
       d="m 15173,55978 c 0,-30 -121,-139 -274,-245 -132,-92 -228,-253 -228,-379 0,-33 -31,-88 -69,-124 -95,-88 -167,-239 -187,-388 -9,-69 -27,-146 -40,-172 -31,-61 -92,-386 -142,-761 -23,-167 -58,-387 -79,-489 -53,-256 -50,-426 10,-512 28,-39 64,-118 83,-176 18,-58 74,-182 123,-275 85,-162 112,-267 69,-267 -54,0 -227,178 -285,293 -37,72 -78,130 -91,130 -14,0 -57,66 -95,147 l -70,147 25,614 c 20,491 35,637 74,732 27,66 47,177 45,250 -2,91 9,140 39,161 22,17 50,83 61,147 11,64 36,155 55,201 43,105 -3,183 -83,140 -120,-64 -507,-14 -539,71 -53,139 162,212 689,231 55,2 121,37 198,104 236,207 711,487 711,420 z"
       id="path4614"
       style="fill:#00ff00" /><path
       fill="#ffff00"
       stroke="none"
       d="m 13948,54899 c 9,-23 -15,-118 -54,-211 -82,-201 -227,-778 -244,-972 -6,-76 -19,-209 -28,-296 -24,-219 66,-959 123,-1016 23,-23 62,-74 86,-112 24,-39 89,-97 144,-131 55,-33 147,-97 204,-142 57,-44 153,-105 212,-134 153,-75 149,-126 -30,-350 -84,-106 -199,-265 -256,-353 -123,-193 -196,-236 -292,-174 -37,24 -87,44 -112,44 -93,0 -397,120 -499,197 -59,44 -151,104 -205,133 -57,30 -99,72 -99,99 0,33 -21,47 -70,47 -80,0 -139,65 -141,153 0,52 -13,60 -87,55 -69,-5 -111,16 -201,98 -294,269 -500,498 -578,641 l -86,156 355,359 c 195,198 380,405 410,461 30,56 69,125 87,154 134,219 183,313 243,463 38,95 83,195 99,224 46,80 181,334 237,443 67,131 109,150 385,168 128,9 238,21 244,27 29,29 138,7 153,-31 z"
       id="path4621" /><path
       fill="#ffff00"
       stroke="none"
       d="m 13058,52798 c 170,-91 285,-487 167,-579 -194,-153 -547,144 -507,427 14,100 245,203 340,152 z"
       id="path4635" /><path
       fill="#ffff00"
       stroke="none"
       d="m 12938,53013 c -374,-132 -422,-192 -423,-521 -1,-320 164,-522 529,-646 266,-91 540,81 502,315 -11,66 -22,193 -23,282 -2,95 -18,179 -40,206 -21,25 -64,103 -97,174 -96,207 -234,265 -448,190 z"
       id="path4628"
       style="fill:#00ff00" /><path
       fill="#ffff00"
       stroke="none"
       d="m 11355,52327 c 18,-11 44,-52 59,-91 15,-39 66,-91 114,-116 48,-24 142,-93 208,-153 162,-145 522,-386 576,-386 18,0 63,-30 99,-66 36,-37 98,-84 138,-105 39,-21 151,-119 249,-219 175,-178 242,-228 517,-381 238,-132 150,-210 -258,-229 l -251,-11 -172,137 c -94,75 -216,185 -270,244 -54,59 -155,134 -225,167 -70,33 -193,116 -273,183 -80,67 -235,169 -344,226 -459,242 -796,552 -682,628 111,74 477,196 515,172 z"
       id="path4642"
       style="fill:#00ff00" /></g><g
     id="layer19"
     inkscape:label="Shoes-right"><path
       fill="#ffff00"
       stroke="none"
       d="m 38218,51305 c 138,-36 305,-80 370,-98 294,-81 1138,-607 1138,-710 0,-91 -682,-609 -1059,-804 -461,-238 -477,-242 -1481,-362 -407,-48 -1152,-349 -1720,-694 -95,-57 -213,-121 -263,-142 -50,-21 -155,-81 -233,-132 -256,-170 -729,-309 -889,-262 -73,22 -159,40 -192,40 -263,0 -437,180 -586,607 l -60,171 92,138 c 112,169 258,286 333,266 30,-7 92,-2 139,11 47,14 173,37 280,51 144,19 227,46 315,105 66,44 135,79 152,79 17,0 53,25 79,54 27,30 98,76 157,102 59,27 170,99 248,160 77,62 229,160 337,218 108,58 197,119 197,134 0,27 243,283 714,751 418,415 1114,529 1932,317 z"
       id="path4656" /><path
       fill="#ffff00"
       stroke="none"
       d="m 39798,50046 c 6,-83 -6,-103 -118,-186 -225,-166 -524,-359 -737,-475 -115,-62 -294,-165 -396,-229 -103,-63 -246,-127 -318,-141 -72,-15 -273,-62 -448,-106 -174,-44 -413,-93 -529,-108 -201,-27 -471,-98 -820,-216 -172,-58 -581,-266 -794,-404 -73,-47 -239,-148 -370,-225 -131,-77 -274,-166 -318,-197 -285,-205 -912,-296 -1046,-152 -53,56 -73,60 -211,44 -97,-11 -159,-8 -170,10 -9,16 -61,41 -115,56 -54,15 -156,70 -227,122 l -129,95 12,144 c 18,212 64,245 195,140 57,-45 163,-113 235,-149 72,-37 161,-88 198,-114 148,-103 458,-146 712,-98 126,24 273,50 327,59 54,8 174,49 265,90 91,41 243,107 338,148 223,95 459,237 747,448 151,111 284,185 383,214 82,24 222,80 310,124 93,47 215,86 289,91 71,6 139,16 151,24 12,7 121,19 242,27 352,22 1206,309 1396,469 48,41 143,102 210,136 67,34 144,87 172,118 28,30 66,55 85,55 19,0 78,39 130,86 52,48 125,114 163,147 98,89 178,69 187,-47 z"
       id="path4670"
       style="fill:#00ff00" /><path
       fill="#ffff00"
       stroke="none"
       d="m 39646,49457 c 0,-35 -258,-253 -365,-309 -61,-32 -61,-31 -22,44 49,95 217,225 381,295 4,2 6,-12 6,-30 z"
       id="path4677"
       style="fill:#00ff00" /><path
       fill="#ffff00"
       stroke="none"
       d="m 38798,48895 c -56,-56 -513,-251 -589,-251 -34,0 -162,-46 -284,-103 -140,-66 -305,-118 -448,-143 -305,-52 -709,-264 -1242,-653 -90,-66 -208,-143 -263,-172 -55,-29 -152,-102 -216,-163 -65,-60 -206,-190 -315,-289 -109,-98 -247,-227 -306,-287 -59,-59 -201,-197 -314,-306 -113,-109 -216,-218 -229,-243 -37,-68 -351,-232 -501,-260 -75,-14 -148,-34 -163,-43 -15,-10 -94,-26 -177,-39 -82,-12 -221,-34 -308,-49 -180,-30 -292,-2 -319,82 -40,127 64,399 174,454 110,55 174,195 118,257 -85,94 260,685 380,650 287,-84 382,-96 537,-68 235,43 629,177 746,254 56,36 192,105 304,152 111,47 286,148 388,224 568,422 1110,666 1480,666 58,0 188,22 291,50 102,27 282,70 399,95 116,24 337,85 489,134 316,101 434,117 368,51 z"
       id="path4684" /><path
       fill="#ffff00"
       stroke="none"
       d="m 33101,47635 c 10,-16 83,-58 161,-93 167,-73 192,-116 125,-215 -26,-40 -57,-150 -67,-245 -45,-392 -72,-459 -296,-720 -399,-465 -713,-167 -415,393 56,104 121,259 145,344 107,377 280,644 347,536 z"
       id="path4691"
       style="fill:#00ff00" /></g><g
     id="layer18"
     inkscape:label="Socks"><path
       fill="#ffffff"
       stroke="none"
       d="m 15298,51810 c 11,-19 79,-73 150,-122 71,-48 223,-178 338,-288 115,-110 237,-219 272,-241 55,-37 359,-363 359,-384 0,-85 -397,-783 -445,-783 -11,0 -114,-128 -229,-285 -230,-311 -632,-721 -786,-801 -53,-28 -104,-62 -113,-76 -93,-151 -390,-113 -569,74 -68,71 -171,160 -228,198 -57,38 -148,99 -200,134 -53,36 -122,98 -154,138 -31,41 -176,197 -320,347 -318,331 -340,419 -117,470 230,53 495,158 586,233 56,46 170,130 254,186 84,57 185,140 225,186 41,45 119,116 174,158 55,41 112,106 126,143 14,38 68,115 120,172 52,58 121,164 155,236 111,241 337,411 402,304 z"
       id="path4649" /><path
       fill="#ffffff"
       stroke="none"
       d="m 32130,46237 c 18,-73 42,-139 55,-147 12,-8 67,-99 121,-202 110,-208 172,-259 552,-448 200,-99 220,-104 331,-79 65,15 184,28 264,29 196,2 337,37 407,103 32,30 206,114 388,187 328,132 369,160 454,316 60,110 157,154 249,112 136,-62 25,-371 -202,-562 -73,-62 -160,-157 -192,-212 -32,-55 -120,-198 -196,-319 -75,-121 -145,-267 -156,-325 -10,-57 -50,-134 -88,-172 -38,-37 -108,-113 -155,-169 -92,-109 -288,-254 -345,-255 -19,0 -66,-24 -106,-52 -111,-80 -363,-131 -640,-128 -255,2 -265,4 -758,180 -90,32 -219,105 -288,161 -68,57 -135,103 -148,103 -194,0 -469,609 -353,785 31,48 38,95 25,170 -20,120 54,271 226,459 54,59 108,137 121,174 136,380 374,540 434,291 z"
       id="path4698" /></g><g
     id="layer21"
     inkscape:label="Shorts"><path
       fill="#ff0000"
       stroke="none"
       d="m 16973,39358 c 78,-15 220,-38 315,-52 324,-46 1456,-554 1891,-848 58,-39 199,-128 312,-197 247,-151 476,-413 429,-490 -35,-56 -125,-20 -265,106 -93,85 -170,132 -212,132 -89,0 -379,120 -448,185 -79,74 -494,235 -755,293 -124,28 -267,63 -318,79 -206,63 -568,79 -1124,51 -306,-15 -792,-33 -1081,-39 l -526,-11 17,85 c 69,353 302,598 600,631 122,14 318,41 434,61 262,44 544,50 731,14 z"
       id="path4712"
       style="display:inline;fill:#ff0000" /><path
       fill="#ff0000"
       stroke="none"
       d="m 17968,38310 c 32,-20 109,-37 172,-38 104,0 217,-42 391,-145 36,-21 115,-51 175,-66 65,-15 180,-84 281,-165 95,-77 194,-152 222,-169 58,-35 61,-34 -308,-154 -123,-40 -290,-109 -370,-152 -80,-43 -200,-99 -266,-124 -187,-72 -640,-335 -713,-414 -36,-39 -160,-118 -274,-175 -402,-203 -1113,-981 -1354,-1481 -175,-365 -437,-710 -650,-859 -118,-81 -658,-115 -716,-45 -39,47 -166,43 -264,-7 -58,-30 -117,-37 -217,-24 -137,18 -282,-45 -282,-122 0,-79 -451,-553 -525,-553 -140,0 -182,145 -69,239 46,38 206,269 282,407 64,116 58,184 -25,283 -98,116 -96,526 4,828 34,103 75,241 91,307 39,156 516,1082 711,1379 187,285 287,406 537,651 243,238 289,272 368,272 53,0 115,21 146,49 82,75 1269,350 1335,309 11,-7 97,-2 190,11 252,35 1055,6 1128,-41 z"
       id="path4719" /><path
       fill="#ff0000"
       stroke="none"
       d="m 21125,37456 c 79,-28 233,-100 342,-161 109,-61 342,-177 516,-256 175,-80 359,-177 410,-218 51,-41 178,-125 282,-187 386,-230 1171,-1079 1450,-1569 54,-94 39,-121 -195,-346 l -187,-181 -118,97 c -191,156 -252,252 -237,373 14,112 -543,799 -798,984 -58,42 -122,97 -142,122 -21,25 -72,63 -113,84 -40,22 -97,83 -125,138 -52,102 -147,203 -238,254 -29,16 -139,88 -246,160 -106,72 -241,162 -299,201 -58,39 -177,92 -265,117 -87,25 -176,61 -198,80 -22,19 -90,60 -152,91 -140,70 -140,88 -3,187 130,94 132,94 316,30 z"
       id="path4726"
       style="fill:#ff0000" /><path
       fill="#ff0000"
       stroke="none"
       d="m 19351,37453 c 51,-16 206,-38 344,-49 720,-61 2117,-1227 2117,-1768 0,-15 17,-42 37,-59 61,-50 254,-390 254,-447 0,-28 52,-104 116,-169 141,-144 214,-395 83,-286 -93,77 -40,-97 65,-213 58,-64 106,-143 106,-174 0,-58 38,-111 217,-302 188,-202 167,-272 -189,-641 -473,-491 -1038,-964 -1681,-1409 -73,-50 -213,-147 -311,-214 -143,-98 -191,-150 -241,-258 -94,-202 -145,-250 -359,-336 l -195,-79 -64,60 c -63,59 -156,74 -471,76 -389,3 -388,233 3,419 159,76 345,189 430,263 82,70 261,203 398,294 136,91 378,292 537,447 160,154 322,294 361,311 101,43 169,128 158,200 -21,153 -188,62 -530,-287 -121,-123 -311,-291 -422,-374 -1024,-758 -1313,-891 -1495,-690 -41,45 -108,113 -148,151 -56,54 -72,95 -72,177 0,148 -55,219 -156,205 -83,-13 -97,-2 -292,221 -49,57 -134,133 -189,169 -228,154 -357,248 -385,282 -17,20 -100,84 -186,143 -85,58 -262,182 -393,277 -256,184 -319,226 -541,362 -79,48 -202,126 -274,173 -168,111 -188,109 -254,-28 -67,-137 -470,-562 -570,-600 -248,-94 -411,76 -259,272 40,52 125,167 189,256 150,210 305,341 446,379 61,16 112,43 112,59 0,27 57,153 190,420 28,56 171,264 318,463 147,198 298,402 335,453 38,51 140,168 228,260 88,91 169,184 181,205 11,21 148,146 304,278 156,132 313,266 349,299 36,33 155,110 265,172 109,62 263,154 343,204 80,50 205,114 278,142 73,28 270,111 437,184 332,145 341,147 476,107 z"
       id="path4733" /><path
       fill="#ff0000"
       stroke="none"
       d="m 21653,36525 c 318,-127 1430,-1284 1533,-1596 16,-50 76,-144 134,-209 185,-211 204,-347 67,-476 -174,-167 -354,-312 -383,-312 -23,0 -282,507 -708,1389 -36,72 -111,197 -168,278 -57,80 -104,165 -105,190 0,24 -25,62 -55,83 -30,21 -86,86 -126,145 -98,150 -370,502 -401,521 -29,18 -35,66 -9,66 10,0 109,-37 221,-81 z"
       id="path4740"
       style="fill:#ff0000" /><path
       fill="#ff0000"
       stroke="none"
       d="m 24489,34515 c 64,-132 66,-148 26,-172 -24,-14 -133,-111 -242,-215 -307,-290 -328,-294 -423,-71 -74,173 -64,191 257,437 273,210 290,211 382,21 z"
       id="path4747"
       style="fill:#ffff00" /><path
       fill="#ff0000"
       stroke="none"
       d="m 23712,33931 c 85,-219 -155,-616 -424,-701 -184,-59 -248,381 -79,540 402,380 416,385 503,161 z"
       id="path4754"
       style="fill:#ffff00" /><path
       fill="#ff0000"
       stroke="none"
       d="m 24724,33654 c 61,-689 15,-934 -186,-978 -41,-9 -102,-47 -137,-84 -173,-186 -248,-172 -269,50 -9,91 -34,297 -57,457 -66,475 -75,457 432,897 160,139 176,113 217,-342 z"
       id="path4761"
       style="fill:#ff0000" /><path
       fill="#ff0000"
       stroke="none"
       d="m 23010,33260 c 49,-158 58,-282 18,-282 -14,0 -49,-44 -77,-99 -28,-54 -108,-143 -179,-197 -70,-53 -223,-194 -340,-313 -708,-723 -1564,-1446 -1905,-1609 -72,-34 -233,-121 -357,-191 -184,-105 -269,-136 -469,-170 -305,-52 -321,-59 -340,-134 -9,-35 -42,-67 -79,-77 -35,-8 -105,-57 -155,-108 -112,-111 -123,-112 -190,-19 -260,356 -266,480 -38,726 l 129,140 79,-46 c 44,-26 99,-39 122,-30 23,9 86,-5 139,-30 183,-87 547,-5 696,156 37,40 108,95 159,124 51,29 141,89 199,132 59,44 153,110 211,148 59,38 143,102 186,142 44,41 161,129 262,197 101,68 268,210 371,314 182,187 411,372 597,486 96,59 388,354 682,689 201,230 221,233 279,51 z"
       id="path4782"
       style="fill:#ffff00" /><path
       fill="#ff0000"
       stroke="none"
       d="m 23902,33250 c 1,-26 12,-184 26,-352 33,-394 -19,-654 -161,-806 -267,-287 -367,-264 -369,86 -1,127 -10,311 -21,409 -27,237 -12,267 241,503 221,208 284,243 284,160 z"
       id="path4796" /><path
       fill="#ff0000"
       stroke="none"
       d="m 23151,32324 c -9,-157 -23,-338 -31,-404 -14,-104 -8,-127 52,-183 105,-98 89,-130 -199,-386 -147,-131 -317,-285 -378,-344 -306,-291 -434,-405 -560,-502 -308,-235 -583,-458 -737,-598 -174,-157 -487,-377 -668,-469 -61,-31 -162,-91 -225,-134 -363,-244 -442,-162 -632,653 -34,146 57,224 216,186 170,-40 363,48 522,238 84,100 143,144 222,165 69,19 162,80 256,169 81,77 213,184 293,238 80,54 234,184 343,288 109,104 243,225 298,269 54,44 254,228 445,410 880,841 805,802 783,404 z"
       id="path4803" /></g><g
     id="layer22"
     inkscape:label="Belt"
     style="fill:#803300"><path
       fill="rgb(129,212,26)"
       stroke="none"
       d="m 14569,33966 c 388,-20 375,-8 210,-196 -70,-79 -154,-183 -187,-230 -71,-103 -104,-105 -453,-35 -450,91 -470,115 -284,339 126,152 153,167 284,150 51,-6 244,-19 430,-28 z"
       id="path4768"
       style="fill:#803300" /><path
       fill="rgb(129,212,26)"
       stroke="none"
       d="m 16084,33532 c 286,-152 677,-419 813,-556 84,-84 197,-185 251,-225 102,-74 503,-453 652,-617 46,-50 155,-169 244,-265 89,-95 202,-236 253,-312 50,-76 140,-173 199,-216 62,-45 114,-108 125,-152 10,-42 44,-102 74,-135 l 56,-60 -76,-79 c -88,-92 -200,-105 -271,-31 -25,27 -135,155 -244,285 -239,284 -452,496 -595,590 -58,38 -190,153 -292,254 -103,102 -264,232 -358,288 -93,57 -206,137 -249,177 -260,242 -474,383 -681,448 -214,68 -428,186 -438,243 -12,61 179,311 251,329 32,8 72,32 89,52 42,50 73,47 197,-18 z"
       id="path4775"
       style="fill:#803300" /><path
       fill="rgb(129,212,26)"
       stroke="none"
       d="m 19564,29761 c 30,-79 70,-352 83,-565 8,-138 5,-147 -82,-205 -139,-94 -117,-116 -266,266 -104,269 -103,287 42,442 139,148 185,161 223,62 z"
       id="path4810"
       style="fill:#803300" /></g><path
     fill="rgb(42,96,153)"
     stroke="none"
     d="M 13742,33308 C 13822,33289 13955,33249 14038,33219 14120,33189 14299,33152 14434,33137 14793,33096 15124,32999 15295,32883 15342,32852 15425,32818 15479,32807 15534,32797 15627,32764 15685,32734 15744,32704 15848,32665 15915,32647 15997,32625 16109,32557 16246,32446 16360,32353 16502,32242 16560,32198 16668,32118 16905,31909 17142,31686 17215,31617 17326,31519 17390,31469 17650,31263 18451,30279 18451,30165 18451,30142 18462,30117 18476,30109 18500,30094 18655,29784 18853,29356 18909,29234 18980,29033 19010,28910 L 19066,28685 18957,28586 C 18897,28530 18848,28474 18848,28461 18848,28448 18795,28400 18731,28354 18589,28254 18584,28257 18480,28563 18229,29299 18012,29676 17866,29629 17792,29606 17806,29526 17909,29380 18090,29122 18288,28673 18360,28356 18383,28257 18408,28148 18417,28114 18443,28007 18178,27785 18073,27826 18053,27833 18004,27933 17963,28047 17922,28161 17875,28278 17857,28308 17839,28337 17807,28414 17785,28480 17763,28545 17713,28645 17675,28701 17636,28758 17592,28853 17576,28913 17497,29215 17348,29467 17177,29591 17050,29683 16968,29792 16868,30001 16742,30264 16455,30466 16136,30517 16038,30533 15924,30563 15883,30584 15842,30605 15782,30623 15749,30623 15717,30623 15600,30657 15490,30700 15380,30742 15171,30815 15025,30862 14717,30961 14623,31020 14571,31144 14515,31278 14324,31304 14324,31176 14324,31036 14813,30676 15004,30676 15024,30676 15257,30605 15522,30518 15787,30432 16054,30348 16115,30332 16247,30298 16524,30042 16636,29851 16675,29783 16822,29610 16961,29467 17249,29172 17357,29017 17444,28771 17478,28676 17562,28474 17631,28321 17700,28168 17787,27959 17824,27857 L 17890,27672 17785,27460 C 17622,27131 17599,27121 17514,27342 17457,27490 17349,27606 17269,27606 17180,27606 17190,27531 17310,27308 17479,26993 17488,26944 17411,26775 17345,26632 17172,26379 17096,26316 17016,26249 16794,26424 16674,26648 16647,26699 16578,26756 16495,26798 16421,26836 16335,26906 16303,26955 16236,27057 15989,27223 15865,27249 15742,27274 15540,27443 15425,27617 15325,27767 15216,27818 15182,27730 15147,27640 15279,27395 15417,27291 15493,27235 15584,27157 15620,27118 15657,27078 15758,27010 15845,26966 15933,26922 16065,26833 16139,26771 16213,26708 16315,26637 16366,26613 16476,26560 16626,26297 16626,26157 16626,26061 16676,25948 16779,25813 L 16844,25727 16812,25430 C 16794,25266 16763,25045 16742,24938 16696,24696 16696,24453 16743,24057 16782,23729 16773,23555 16712,23461 16680,23411 16680,23391 16714,23315 16738,23262 16759,23100 16769,22902 16777,22723 16797,22553 16812,22524 16833,22486 16832,22445 16810,22379 16793,22328 16770,22189 16757,22069 16700,21517 16622,21321 16472,21349 16272,21387 16260,21417 16280,21869 16289,22069 16245,22266 16132,22531 16080,22652 16016,22806 15990,22873 15963,22940 15905,23067 15860,23154 15816,23242 15779,23322 15779,23332 15779,23355 15578,23653 15496,23753 15461,23795 15415,23873 15393,23925 15294,24163 14723,24675 14443,24778 14356,24811 14272,24846 14257,24857 14132,24952 13885,25050 13695,25081 13574,25101 13461,25126 13444,25137 13426,25148 13274,25166 13107,25176 12809,25194 12669,25181 12326,25106 12239,25086 12054,25063 11916,25053 11623,25033 11612,25030 11167,24872 10605,24672 10418,24549 10126,24187 10047,24089 9947,23990 9904,23968 9861,23945 9826,23913 9826,23896 9826,23879 9797,23823 9761,23771 9726,23719 9661,23582 9619,23465 9576,23349 9486,23136 9419,22993 9352,22850 9285,22683 9270,22623 9255,22562 9226,22453 9205,22381 9126,22104 9086,21836 9059,21402 9043,21154 9026,20928 9019,20899 8988,20749 9014,19509 9050,19450 9056,19439 9049,19430 9033,19430 8843,19430 8731,20275 8703,21931 8695,22371 8677,22667 8650,22817 8627,22941 8595,23137 8579,23253 8531,23595 8458,23702 8185,23824 L 7961,23925 7749,23897 C 7633,23882 7505,23852 7464,23832 7376,23787 7322,23879 7352,24021 7362,24065 7375,24160 7383,24233 7391,24305 7408,24376 7421,24390 7434,24404 7445,24439 7445,24470 7445,24500 7488,24626 7540,24750 7592,24873 7664,25061 7700,25168 7736,25275 7789,25406 7817,25459 7845,25512 7868,25587 7868,25625 7868,25664 7905,25772 7948,25864 7992,25956 8027,26071 8027,26119 8027,26167 8075,26306 8134,26428 8193,26550 8248,26695 8257,26751 8266,26806 8293,26882 8319,26918 8396,27030 8577,27405 8689,27686 8747,27833 8829,28021 8871,28104 8912,28186 8955,28284 8966,28320 8987,28389 9182,28725 9281,28863 9312,28906 9391,29047 9456,29175 9521,29303 9619,29464 9672,29532 9726,29601 9821,29728 9882,29815 10004,29988 10011,29996 10418,30424 10570,30584 10764,30791 10849,30883 10934,30976 11051,31085 11109,31125 11232,31211 11337,31318 12100,32136 12408,32466 12701,32761 12750,32792 12812,32830 12852,32884 12882,32971 12964,33207 12978,33223 13174,33298 13371,33374 13455,33375 13742,33307 L 13742,33308 Z"
     id="path4789" /><path
     fill="rgb(232,162,2)"
     stroke="none"
     d="M 9040,17307 L 9009,17233 8978,17160 9084,17116 C 9127,16811 9131,16600 9098,16470 9078,16389 9043,16234 9020,16124 8997,16015 8943,15850 8899,15758 8856,15667 8821,15577 8821,15558 8821,15540 8789,15467 8751,15395 8622,15154 8625,15007 8757,15107 8812,15148 8900,15160 8900,15125 8900,15092 8844,15033 8712,14928 8561,14809 8535,14666 8585,14240 8621,13924 8642,13887 8724,13989 8897,14203 8966,14019 8853,13646 8812,13511 8813,13502 8882,13299 8921,13184 8953,13074 8953,13055 8953,13036 8973,12998 8999,12970 9033,12932 9045,12871 9046,12723 L 9048,12526 9171,12407 C 9308,12276 9421,12246 9391,12349 9309,12633 9436,12750 9551,12495 9599,12387 9599,12387 9541,12348 9465,12298 9467,12274 9552,12152 9628,12042 9677,12028 9750,12094 9863,12197 10055,12053 10088,11841 10118,11651 10241,11562 10329,11667 10381,11730 10422,11715 10500,11602 10669,11358 10919,11189 10975,11281 10997,11317 10893,11434 10737,11550 10570,11673 10522,11745 10568,11801 10657,11909 10947,11684 11053,11425 11177,11121 11263,11080 11431,11243 11536,11345 11587,11339 11668,11217 11721,11136 11763,11135 11865,11210 11939,11265 11948,11266 12016,11225 12157,11142 12276,11138 12366,11213 12436,11273 12463,11279 12578,11265 12804,11239 12644,11385 12260,11555 12098,11626 12035,11686 12058,11746 12091,11833 12397,11758 12579,11619 12644,11569 12766,11501 12851,11467 12957,11424 13017,11381 13044,11331 13092,11236 13182,11235 13290,11326 13379,11401 13393,11482 13332,11563 13311,11591 13293,11647 13293,11687 13292,11753 13283,11760 13198,11760 13026,11760 12949,11843 13045,11922 13076,11948 13188,11960 13435,11965 13626,11968 13811,11972 13848,11974 13884,11975 13971,11967 14041,11957 14190,11935 14368,12062 14340,12169 14331,12201 14348,12245 14382,12281 14477,12383 14376,12385 14088,12288 13945,12241 13809,12209 13785,12218 13718,12244 13734,12314 13815,12346 13855,12363 13948,12404 14022,12438 14109,12479 14206,12501 14295,12501 14436,12501 14626,12575 14649,12639 14663,12679 14601,12810 14562,12823 14538,12831 14522,12890 14511,13010 14500,13128 14079,12870 14004,12699 13950,12578 13936,12566 13886,12600 13657,12757 14149,13238 14457,13159 14695,13099 14987,13247 14898,13383 14812,13515 14621,13507 14377,13362 14297,13314 14176,13244 14108,13206 13930,13105 13826,13011 13767,12894 13707,12777 13645,12762 13620,12858 13578,13028 13786,13282 14135,13485 14330,13598 14442,13702 14422,13752 14395,13825 14111,13758 13982,13649 13940,13614 13860,13566 13804,13543 13651,13480 13614,13435 13556,13238 13495,13035 13462,12997 13426,13092 13357,13274 13571,13638 13793,13719 13925,13768 13950,13787 13964,13854 13975,13910 14002,13940 14059,13960 14187,14004 14161,14062 14012,14062 13821,14062 13398,13688 13398,13519 13398,13469 13379,13428 13347,13407 13318,13390 13245,13301 13184,13209 12901,12785 12772,12753 12421,13021 12236,13163 12080,13453 12189,13453 12211,13453 12265,13502 12309,13561 12403,13689 12499,13764 12679,13848 12849,13928 12880,13996 12855,14238 12824,14533 12809,14537 12442,14354 12159,14212 12166,14213 11950,14323 11697,14452 11433,15078 11515,15354 11586,15591 11543,15691 11308,15832 11174,15912 11128,15904 11118,15802 11103,15649 11037,15679 10746,15973 10597,16124 10438,16278 10392,16315 10336,16362 10305,16416 10294,16488 10272,16620 10170,16731 10170,16621 10170,16584 10199,16495 10235,16425 10270,16354 10312,16267 10327,16231 10480,15878 10865,15416 11061,15352 11224,15298 11173,15194 11004,15237 10747,15301 10102,16207 9956,16708 9952,16723 9947,16738 9942,16753 L 9973,16826 10004,16900 9040,17307 Z"
     id="path4572" /><g
     id="layer20"
     inkscape:label="Skin"
     style="display:inline"><path
       fill="#fff5ce"
       stroke="none"
       d="m 16750,50191 c 51,-51 104,-93 117,-93 14,0 105,-72 203,-160 97,-89 220,-183 272,-209 52,-27 249,-146 437,-265 189,-119 379,-235 423,-257 44,-23 182,-116 306,-207 123,-91 266,-184 317,-205 51,-21 187,-110 304,-197 116,-86 298,-207 404,-269 105,-61 260,-167 344,-236 83,-68 253,-192 377,-273 123,-82 276,-192 340,-245 63,-53 125,-96 137,-96 13,0 68,-48 122,-107 55,-59 176,-143 273,-189 95,-45 228,-120 294,-167 67,-48 162,-95 211,-106 131,-29 298,-105 340,-155 19,-24 52,-43 72,-43 20,0 63,-31 96,-70 33,-38 108,-90 167,-116 319,-138 631,-710 567,-1039 -17,-90 -41,-224 -52,-297 -12,-74 -57,-246 -100,-384 -44,-138 -94,-316 -112,-396 -18,-80 -61,-242 -96,-359 -39,-131 -74,-343 -90,-543 -65,-834 -150,-1495 -234,-1836 -14,-59 -40,-231 -56,-384 -17,-153 -41,-381 -55,-508 -24,-227 -88,-505 -182,-788 -26,-81 -68,-217 -93,-305 -60,-209 -170,-499 -361,-955 -86,-206 -156,-388 -156,-406 0,-99 -289,-314 -479,-357 -269,-61 -304,-47 -604,245 -161,157 -367,323 -532,428 -147,95 -393,253 -545,353 -287,187 -605,346 -857,427 -80,26 -217,77 -304,113 -87,36 -218,76 -291,87 -73,12 -186,39 -251,61 -295,97 -523,129 -865,119 l -339,-7 2,105 c 3,177 36,294 110,401 39,56 144,247 233,423 190,377 336,590 554,815 88,89 272,285 411,434 169,183 320,316 463,407 219,141 411,291 553,433 114,114 221,181 353,219 161,46 305,177 269,244 -33,62 17,175 220,496 76,122 175,283 219,358 92,156 180,189 263,97 27,-29 64,-54 83,-54 43,0 198,-196 256,-325 74,-162 179,-174 128,-14 -15,48 -34,120 -42,159 -7,39 -42,104 -76,145 -34,41 -75,115 -92,164 -71,209 -493,480 -747,480 -30,0 -88,17 -130,39 -41,21 -175,50 -296,64 -131,15 -334,66 -498,124 -153,54 -355,120 -450,145 -613,164 -941,387 -1440,977 -190,226 -439,600 -439,662 0,30 -104,367 -165,535 -14,40 -83,114 -153,164 -70,50 -177,164 -238,254 -60,89 -183,236 -273,328 -149,151 -297,325 -343,403 -11,18 29,58 105,103 68,39 225,172 350,295 616,603 698,688 736,762 23,43 100,147 171,229 71,82 142,189 158,238 68,200 141,223 276,88 z"
       id="path4663" /><path
       fill="#fff5ce"
       stroke="none"
       d="m 31349,44149 c 84,-80 179,-142 243,-159 58,-16 127,-52 153,-81 109,-120 826,-280 1346,-300 448,-17 452,-38 123,-567 -56,-90 -110,-189 -119,-218 -10,-30 -64,-132 -122,-226 -143,-237 -274,-535 -433,-991 -33,-95 -115,-330 -183,-525 -67,-194 -145,-397 -172,-450 -93,-187 -222,-601 -322,-1030 -46,-197 -55,-311 -49,-595 14,-673 -413,-1505 -899,-1751 -72,-37 -139,-79 -149,-94 -9,-15 -65,-52 -124,-83 -98,-50 -314,-218 -550,-430 -125,-112 -330,-290 -486,-423 -71,-60 -193,-166 -271,-235 -78,-69 -210,-170 -294,-224 -84,-54 -224,-160 -311,-234 -87,-75 -220,-177 -294,-226 -75,-50 -210,-147 -299,-218 -90,-70 -261,-182 -380,-248 -120,-65 -241,-140 -270,-165 -29,-25 -107,-75 -172,-111 -66,-35 -213,-142 -328,-236 -265,-217 -466,-355 -613,-420 -64,-28 -167,-86 -229,-129 -63,-42 -168,-104 -233,-137 -66,-33 -153,-90 -196,-125 -54,-45 -99,-61 -146,-52 -38,7 -101,-6 -143,-31 -101,-59 -185,34 -229,253 -17,84 -54,201 -82,259 -29,58 -77,189 -107,291 -30,102 -71,239 -90,304 -105,352 -602,1142 -897,1428 -52,50 -94,100 -94,111 0,94 -449,565 -701,735 -73,49 -162,115 -199,146 -36,32 -149,107 -251,166 -481,281 -509,423 -120,607 110,52 231,116 269,143 38,27 157,81 264,120 107,39 233,99 278,133 132,101 488,244 783,314 150,36 326,79 391,96 66,16 239,40 384,52 487,41 820,75 893,92 40,10 171,2 291,-16 120,-19 293,-31 385,-28 92,3 216,-11 278,-33 312,-107 473,-120 524,-43 20,30 117,82 216,117 98,34 220,99 271,143 204,180 230,181 389,20 78,-78 195,-169 260,-202 65,-33 170,-96 234,-139 69,-48 213,-105 357,-142 216,-56 251,-74 335,-171 110,-128 191,-134 205,-14 12,108 -75,188 -296,269 -205,75 -292,114 -453,205 -240,137 -282,180 -463,486 -36,61 -107,169 -158,239 l -93,127 3,397 c 2,265 17,445 44,542 22,80 61,241 87,358 56,255 211,623 332,792 49,68 116,159 148,203 86,118 781,816 918,923 66,51 128,120 137,153 9,33 50,78 91,99 41,21 81,60 90,87 27,85 281,274 322,240 58,-48 107,-9 152,123 39,115 130,240 399,543 59,67 140,165 181,219 92,120 79,122 244,-34 z"
       id="path4705" /><path
       fill="#fff5ce"
       stroke="none"
       d="m 13588,24791 c 77,-19 230,-71 339,-116 110,-45 217,-88 239,-96 21,-8 111,-68 198,-132 87,-65 225,-154 306,-200 258,-143 453,-370 674,-785 69,-128 145,-263 170,-300 147,-217 371,-726 356,-808 -9,-47 -2,-111 14,-143 49,-90 107,-540 89,-688 l -16,-136 -188,6 c -103,4 -283,5 -400,3 -116,-2 -247,-3 -291,-1 -161,4 -689,-64 -792,-102 -660,-244 -909,-250 -1189,-30 -71,56 -211,150 -311,208 -286,167 -326,249 -301,618 36,521 30,568 -72,570 -56,1 -206,-295 -254,-502 -122,-523 -111,-592 113,-702 79,-39 163,-100 187,-135 23,-36 75,-79 114,-96 39,-17 201,-118 360,-224 159,-106 301,-193 316,-193 14,0 51,-23 82,-52 106,-99 323,-100 499,-1 124,70 191,88 384,104 128,11 249,29 268,41 53,33 455,37 524,6 48,-22 67,-18 95,21 29,39 57,45 154,32 73,-10 130,-5 148,13 28,28 67,19 257,-59 121,-49 199,-54 215,-12 10,25 34,35 64,26 26,-8 71,-20 101,-25 29,-6 75,-22 101,-36 31,-16 108,-15 215,2 120,20 182,19 225,-3 32,-16 213,-40 402,-53 366,-24 652,-103 1129,-312 111,-49 233,-89 269,-89 94,0 287,-137 370,-263 68,-103 235,-213 323,-213 148,0 157,-85 36,-323 -92,-180 -68,-207 241,-272 458,-97 866,-34 978,150 113,185 72,220 -172,151 -389,-110 -596,-87 -711,78 -85,124 -85,137 -1,137 41,0 96,30 140,79 50,54 113,87 203,106 73,14 194,39 270,54 263,53 888,18 1158,-64 611,-185 1419,-452 1574,-519 353,-152 629,-267 1245,-518 255,-104 400,-181 778,-413 73,-45 221,-117 329,-160 109,-44 228,-100 265,-125 37,-26 229,-152 425,-281 196,-128 434,-291 527,-361 183,-137 305,-183 628,-235 158,-26 228,-52 294,-108 106,-91 187,-113 339,-92 347,48 1080,-903 752,-975 -99,-22 -125,-73 -79,-159 26,-48 27,-89 3,-182 -16,-65 -30,-161 -30,-212 0,-104 -52,-148 -178,-148 -135,0 -186,-59 -142,-163 101,-237 25,-363 -160,-266 -200,103 -286,24 -195,-179 68,-150 46,-235 -88,-337 -188,-143 -445,-102 -506,81 -37,113 -277,330 -451,407 -65,29 -151,84 -192,121 -81,77 -218,112 -339,88 -56,-11 -83,-4 -94,24 -21,55 -70,48 -109,-14 -18,-29 -61,-53 -95,-53 -34,0 -84,-24 -110,-53 -120,-133 -501,83 -438,248 42,110 108,199 160,215 27,9 61,51 76,95 18,51 56,89 106,106 l 78,28 -39,115 c -21,63 -57,122 -80,130 -62,24 -653,146 -921,190 -131,22 -345,68 -476,104 -130,35 -282,66 -336,66 -55,0 -204,30 -331,67 -354,102 -613,154 -788,156 -93,1 -199,21 -257,49 -54,26 -137,44 -185,41 -48,-3 -111,7 -140,23 -29,16 -83,23 -119,17 -36,-7 -179,13 -317,45 -139,32 -293,61 -344,65 -502,37 -1541,400 -2156,753 -307,176 -942,127 -1407,-109 -164,-83 -232,-105 -287,-91 -45,11 -133,-2 -234,-34 -296,-95 -1628,-123 -1869,-39 -136,47 -885,121 -1213,119 -185,-1 -272,-19 -542,-108 -353,-118 -873,-240 -1017,-240 -51,0 -137,-14 -192,-30 -79,-24 -155,-21 -366,15 -208,34 -299,38 -413,17 -245,-45 -801,168 -1074,412 -79,71 -214,175 -299,233 -86,57 -187,144 -225,192 -38,48 -83,87 -99,87 -42,0 -107,82 -125,161 -9,37 -46,100 -82,139 -36,39 -79,121 -94,183 -16,62 -57,189 -93,284 -64,170 -154,646 -185,979 -9,95 -28,249 -42,344 -20,131 -17,220 13,374 21,112 32,227 24,258 -25,94 45,749 108,1025 53,230 164,542 365,1028 159,385 556,1045 630,1045 12,0 75,45 138,100 64,55 210,158 326,229 116,71 240,157 277,190 74,68 341,146 708,209 135,23 278,56 318,73 151,65 1211,90 1439,34 z"
       id="path4817" /><path
       fill="#fff5ce"
       stroke="none"
       d="m 17777,21987 c 130,-23 285,-64 343,-92 151,-71 272,-111 420,-137 71,-12 149,-41 174,-63 25,-23 93,-41 156,-41 132,0 483,-117 513,-172 15,-26 46,-33 97,-23 57,11 84,2 114,-40 21,-30 92,-79 157,-108 66,-29 149,-76 186,-105 81,-64 251,-104 435,-102 75,0 176,-13 225,-29 49,-16 209,-26 356,-23 177,5 280,-4 306,-25 51,-42 428,-119 482,-98 24,9 86,-4 138,-28 52,-25 112,-38 133,-30 45,17 383,-68 565,-142 66,-27 179,-56 252,-63 73,-8 222,-55 331,-104 109,-50 263,-112 342,-138 80,-26 199,-82 265,-124 66,-42 177,-93 245,-114 69,-20 208,-85 309,-144 101,-59 193,-108 203,-108 43,0 443,-252 485,-306 25,-32 124,-111 219,-174 95,-64 261,-174 368,-246 108,-72 230,-158 271,-191 126,-103 371,-237 468,-256 313,-62 486,-283 330,-420 -66,-58 -156,-158 -200,-222 -89,-129 -126,-141 -196,-63 -27,29 -62,53 -78,53 -17,0 -113,54 -215,121 -101,66 -251,157 -334,201 -83,44 -197,119 -252,166 -55,47 -219,149 -365,227 -145,77 -292,162 -325,187 -34,26 -123,67 -199,91 -75,25 -204,85 -285,134 -182,110 -505,249 -576,249 -28,0 -87,30 -131,67 -105,88 -517,270 -666,293 -65,11 -208,60 -317,110 -109,51 -258,113 -331,139 -73,25 -174,61 -225,79 -51,18 -176,68 -278,112 -101,43 -232,91 -291,105 -58,15 -173,45 -256,67 -103,28 -199,35 -300,24 -81,-10 -364,1 -627,24 -264,23 -540,45 -614,50 -293,18 -486,53 -683,125 -114,41 -251,75 -305,76 -108,0 -306,80 -390,157 -51,47 -446,159 -606,172 -45,3 -152,25 -239,48 -88,22 -204,48 -258,58 -100,16 -140,92 -71,134 16,10 21,47 13,82 -31,122 55,331 190,462 69,67 141,141 160,166 25,31 47,37 80,19 26,-14 153,-44 283,-67 z"
       id="path4831" /><path
       fill="#fff5ce"
       stroke="none"
       d="m 27246,18255 c 74,-21 168,-45 208,-53 127,-26 107,-283 -33,-421 l -104,-103 -204,18 c -141,13 -225,35 -272,71 -38,29 -98,75 -133,101 l -64,48 127,148 c 192,221 266,251 475,191 z"
       id="path4838" /><path
       fill="#fff5ce"
       stroke="none"
       d="m 28437,18001 c 45,-25 110,-54 147,-65 375,-112 761,-549 637,-723 -28,-40 -60,-105 -70,-145 -9,-39 -26,-76 -36,-83 -32,-19 -248,205 -330,341 -92,153 -309,303 -536,370 -85,26 -170,51 -188,57 -87,27 -98,142 -20,223 109,114 228,122 396,25 z"
       id="path4845" /><path
       fill="#fff5ce"
       stroke="none"
       d="m 27994,17530 c 72,-68 206,-136 267,-136 76,0 298,-158 332,-235 49,-114 255,-408 341,-487 90,-83 93,-190 7,-321 -48,-73 -118,-91 -118,-30 0,75 -104,276 -223,432 -66,88 -121,172 -121,185 0,25 -421,375 -562,468 -40,26 -73,68 -73,93 0,93 68,107 150,31 z"
       id="path4852" /><path
       fill="#fff5ce"
       stroke="none"
       d="m 14481,16739 c 0,-10 7,-46 16,-79 11,-42 5,-59 -24,-59 -47,0 -77,63 -55,119 16,40 62,55 63,19 z"
       id="path4859" /><path
       fill="#fff5ce"
       stroke="none"
       d="m 9924,16948 c 23,-1 50,-10 72,-30 l 67,-28 -8,-19 c 25,-13 55,-27 83,-37 109,-36 507,-305 507,-343 0,-32 208,-241 299,-301 59,-38 103,-44 218,-31 179,21 292,-21 454,-171 139,-127 187,-125 265,17 172,312 231,338 630,281 315,-45 368,-177 249,-619 -46,-174 -265,-198 -225,-25 79,341 15,493 -186,443 -57,-15 -402,-511 -460,-663 -15,-40 -52,-107 -81,-149 -42,-58 -48,-86 -26,-127 15,-28 28,-89 28,-135 0,-100 169,-415 233,-433 240,-70 331,-46 540,141 161,143 -11,187 -267,68 -183,-85 -161,-93 -331,116 -171,208 -176,227 -75,262 56,19 83,54 107,136 85,283 364,467 377,247 8,-121 -13,-216 -73,-345 -105,-222 -9,-271 261,-135 133,67 233,33 233,-80 0,-130 45,-210 141,-250 105,-44 153,-180 119,-341 -12,-56 -10,-127 5,-166 96,-252 -71,-546 -391,-688 -164,-73 -163,-69 -50,-185 151,-155 255,-124 331,98 151,436 450,700 831,732 l 213,18 45,132 c 173,510 164,583 -79,672 -301,109 -322,203 -131,574 217,421 347,1391 205,1532 -17,18 -750,-132 -866,-177 -38,-15 -128,-36 -201,-48 -73,-11 -234,-41 -357,-66 -142,-29 -328,-44 -503,-41 -153,2 -313,4 -357,4 -164,-2 -663,129 -910,239 -93,41 -188,75 -212,76 -135,1 -807,564 -985,826 -57,83 -139,170 -182,192 -80,41 -177,179 -468,661 -223,370 -279,487 -263,552 8,31 -15,128 -51,216 -110,266 -164,534 -209,1031 -23,262 -60,661 -81,887 -23,235 -38,653 -36,979 4,628 -12,722 -155,929 l -1,-1 c -164,238 -273,242 -539,18 -278,-235 -423,-882 -263,-1180 48,-91 138,-516 161,-768 25,-261 45,-368 80,-414 11,-15 47,-128 80,-252 33,-124 80,-266 106,-317 25,-51 64,-152 86,-225 37,-125 105,-295 189,-476 57,-125 163,-384 214,-530 45,-125 261,-585 342,-727 97,-168 307,-839 377,-1190 z"
       id="path4866"
       style="display:inline" /></g><path
     fill="#000000"
     stroke="none"
     d="m 32842,63526 c 0,-1 0,-1 -1,-1 z m -5,-2 c -56,-8 -552,-19 -1144,-25 -1601,-15 -2535,-37 -3873,-92 -371,-15 -817,-32 -992,-39 -174,-6 -496,-25 -714,-40 -218,-16 -591,-34 -829,-41 -238,-7 -441,-18 -452,-25 -11,-7 -275,-25 -587,-41 -629,-31 -737,-38 -1214,-80 -182,-16 -533,-45 -781,-65 -247,-21 -557,-49 -688,-64 -131,-15 -440,-45 -688,-67 -247,-23 -587,-54 -754,-69 -168,-15 -381,-38 -476,-52 -94,-14 -261,-32 -370,-40 -109,-8 -276,-27 -371,-41 -94,-14 -279,-37 -410,-51 -131,-14 -363,-44 -516,-66 -152,-22 -367,-52 -476,-66 -501,-66 -609,-82 -807,-118 -116,-21 -432,-69 -701,-107 -269,-37 -531,-79 -582,-93 -51,-13 -152,-31 -225,-39 -148,-18 -455,-72 -833,-147 -139,-27 -365,-68 -503,-93 -138,-24 -299,-53 -357,-64 -59,-11 -261,-46 -450,-78 -189,-32 -398,-75 -463,-96 -66,-20 -268,-61 -450,-90 -182,-29 -515,-102 -741,-161 -225,-59 -493,-123 -595,-142 -102,-19 -292,-61 -423,-93 -131,-31 -310,-75 -397,-96 -195,-46 -765,-210 -1191,-341 -174,-54 -526,-162 -780,-241 -255,-78 -553,-174 -662,-212 -109,-38 -294,-99 -410,-136 -117,-37 -307,-108 -423,-157 -117,-49 -277,-107 -357,-130 -80,-23 -265,-89 -410,-148 -146,-59 -307,-122 -358,-141 -223,-83 -460,-193 -793,-365 -758,-393 -945,-492 -1098,-581 -88,-51 -248,-143 -358,-205 -182,-103 -454,-279 -636,-411 -316,-229 -539,-386 -684,-481 -177,-117 -607,-519 -773,-723 -54,-65 -145,-169 -202,-231 -360,-381 -778,-1251 -778,-1611 0,-48 -15,-171 -32,-274 -36,-206 -16,-330 163,-1005 69,-264 278,-704 359,-757 31,-21 93,-88 138,-150 45,-61 192,-219 327,-350 134,-131 287,-282 339,-337 52,-54 175,-155 272,-225 162,-115 443,-325 687,-513 54,-42 131,-90 172,-107 41,-17 105,-59 141,-91 37,-33 188,-121 337,-196 150,-75 278,-147 286,-160 24,-38 1172,-603 1308,-644 68,-20 182,-66 254,-102 72,-36 214,-97 315,-136 102,-40 221,-88 265,-107 162,-73 453,-173 503,-173 29,0 90,-23 136,-51 45,-28 176,-77 291,-109 342,-96 511,-154 571,-196 31,-22 82,-33 114,-25 32,8 146,-15 253,-50 419,-138 494,-161 712,-218 123,-32 332,-91 463,-130 131,-40 321,-94 423,-121 102,-27 340,-90 529,-141 189,-50 410,-105 490,-121 80,-15 193,-40 251,-54 58,-14 207,-50 331,-80 123,-30 290,-71 370,-91 274,-66 1500,-319 2024,-416 565,-105 691,-127 953,-170 145,-23 413,-70 595,-105 182,-35 405,-71 496,-81 90,-10 178,-34 195,-54 16,-20 69,-36 116,-36 87,0 291,-203 365,-364 15,-33 42,-60 61,-60 50,0 76,-107 33,-138 -27,-19 -25,-22 10,-10 58,18 143,-137 179,-326 24,-126 99,-257 320,-557 59,-80 136,-189 170,-243 35,-53 125,-148 200,-211 75,-63 190,-161 256,-216 277,-234 1336,-693 1790,-777 115,-21 246,-58 291,-83 45,-24 135,-45 201,-45 160,0 143,-76 -154,-726 -106,-232 -624,-684 -997,-871 -183,-92 -572,-474 -740,-729 -78,-117 -197,-270 -265,-341 -144,-150 -528,-709 -684,-996 -266,-491 -308,-579 -335,-702 -40,-180 -89,-245 -198,-265 -243,-46 -540,-431 -806,-1045 -57,-130 -126,-269 -155,-309 -29,-41 -83,-150 -121,-243 -47,-115 -103,-198 -176,-261 -116,-99 -254,-286 -413,-562 -55,-94 -169,-275 -254,-401 -87,-130 -204,-354 -268,-516 -63,-158 -144,-346 -181,-419 -190,-377 -280,-818 -258,-1257 21,-425 24,-415 -250,-694 -110,-112 -201,-217 -201,-232 0,-16 -48,-75 -106,-132 -59,-57 -105,-128 -105,-158 0,-30 -15,-79 -34,-108 -28,-47 -25,-60 20,-93 111,-83 61,-367 -96,-540 -73,-80 -182,-203 -243,-273 -61,-70 -277,-298 -481,-508 -204,-210 -406,-421 -450,-469 -44,-48 -181,-178 -305,-291 -441,-401 -915,-884 -1062,-1080 -82,-110 -165,-213 -185,-229 -19,-17 -101,-133 -181,-258 -80,-125 -232,-359 -339,-520 -287,-435 -587,-1048 -734,-1502 -37,-114 -98,-254 -251,-572 -91,-191 -259,-635 -351,-928 -80,-257 -242,-677 -310,-805 -179,-338 -360,-902 -399,-1244 -55,-467 -59,-964 -10,-1068 34,-71 42,-131 30,-223 -13,-92 -3,-166 36,-276 29,-83 53,-220 53,-304 1,-204 64,-542 135,-721 32,-81 67,-204 79,-274 12,-70 45,-178 75,-239 29,-61 66,-176 81,-254 15,-79 57,-218 93,-308 36,-91 66,-193 66,-227 0,-35 36,-146 79,-247 43,-102 79,-213 79,-248 1,-57 23,-114 149,-386 20,-44 73,-186 116,-315 44,-130 114,-326 157,-437 43,-110 127,-362 188,-558 60,-196 133,-408 161,-470 27,-63 50,-137 50,-167 0,-29 25,-127 56,-217 113,-333 52,-857 -149,-1276 -49,-102 -113,-251 -141,-331 -29,-80 -81,-217 -118,-304 -80,-188 -94,-731 -29,-1053 21,-99 37,-226 37,-282 0,-56 22,-166 50,-243 27,-78 87,-284 134,-459 46,-175 108,-377 137,-450 30,-73 78,-201 108,-285 57,-166 156,-281 340,-398 65,-40 224,-150 353,-244 142,-102 274,-176 331,-186 179,-29 242,-72 388,-259 194,-254 553,-444 830,-444 55,0 180,-30 277,-67 l 176,-66 125,51 c 85,35 221,57 429,69 461,25 474,25 701,-13 409,-69 447,-62 734,127 295,194 330,229 342,334 7,64 37,95 171,172 278,161 488,327 539,427 40,77 79,106 207,152 214,79 252,156 227,465 -29,360 105,523 362,438 114,-38 189,-17 203,57 11,52 -149,288 -195,288 -20,0 -117,84 -215,188 -212,222 -292,268 -440,257 -101,-8 -113,-2 -154,80 -24,49 -70,117 -102,151 -42,44 -55,82 -44,136 8,41 34,181 58,312 24,131 61,289 81,352 21,62 38,154 38,205 0,68 25,118 96,197 139,154 113,186 -150,180 -228,-5 -262,12 -263,130 0,80 112,329 171,378 26,21 75,82 108,135 41,64 87,101 141,112 244,49 213,605 -40,726 -324,154 -78,281 370,191 143,-29 313,-53 378,-53 65,0 141,-12 168,-26 27,-15 208,-33 402,-41 193,-8 411,-18 484,-24 73,-6 198,0 278,13 320,50 874,122 1243,160 153,16 302,33 331,38 601,95 633,91 1136,-157 190,-94 423,-191 518,-216 94,-24 296,-84 449,-132 152,-49 356,-100 450,-114 95,-14 220,-43 278,-66 58,-22 154,-41 212,-42 59,-1 221,-30 360,-65 173,-44 363,-69 605,-80 194,-9 425,-32 514,-53 89,-20 256,-45 373,-54 116,-10 348,-41 516,-68 167,-28 466,-61 663,-74 239,-15 385,-37 437,-65 42,-23 116,-63 163,-88 107,-58 107,-71 -5,-208 -153,-186 -149,-245 34,-536 61,-96 151,-183 297,-286 234,-165 237,-172 142,-359 -132,-261 -121,-355 62,-539 208,-210 277,-258 482,-338 261,-102 283,-106 459,-76 303,52 769,107 1022,122 138,8 317,26 397,39 141,25 513,67 1296,147 793,82 1211,138 1501,203 123,27 145,25 191,-17 39,-34 76,-42 142,-30 63,12 100,6 122,-21 18,-21 135,-71 262,-110 126,-40 290,-106 365,-148 74,-41 161,-75 193,-75 31,0 113,-29 182,-64 69,-34 226,-94 349,-132 124,-38 293,-103 375,-145 82,-42 213,-91 291,-109 78,-18 237,-66 353,-107 458,-163 984,-364 1085,-415 58,-29 254,-104 436,-166 325,-111 669,-266 700,-315 8,-13 65,-32 127,-42 261,-40 494,-106 655,-186 95,-47 231,-107 304,-133 73,-26 156,-62 185,-80 30,-19 125,-54 212,-78 87,-25 218,-78 291,-119 73,-41 180,-83 238,-93 151,-27 373,-113 411,-159 18,-21 62,-39 97,-39 36,0 231,-65 434,-145 202,-80 378,-146 391,-146 12,0 51,-22 86,-49 34,-27 106,-57 159,-66 54,-10 155,-49 225,-87 71,-37 191,-85 268,-105 77,-20 169,-55 204,-78 35,-23 193,-88 350,-144 421,-149 712,-258 767,-287 26,-14 126,-52 220,-84 95,-32 274,-102 397,-158 124,-55 326,-132 449,-172 124,-39 249,-86 278,-103 29,-17 178,-77 331,-134 153,-56 309,-130 346,-165 53,-49 105,-65 225,-71 120,-7 215,-37 408,-129 138,-66 293,-132 344,-147 88,-27 399,-144 714,-269 80,-32 172,-82 204,-112 43,-39 79,-50 135,-39 53,11 113,-4 193,-46 64,-34 212,-95 328,-135 116,-39 247,-90 291,-113 44,-22 115,-49 159,-61 194,-50 478,-170 794,-335 58,-31 159,-70 224,-88 153,-41 485,-156 755,-262 116,-46 336,-131 489,-190 153,-59 325,-134 384,-167 58,-32 153,-68 211,-78 57,-11 331,-109 608,-219 692,-274 949,-371 1165,-443 102,-33 280,-105 397,-159 116,-54 295,-126 397,-160 102,-34 268,-94 370,-132 102,-39 263,-99 357,-133 95,-34 334,-129 530,-211 197,-81 415,-167 487,-189 71,-22 172,-63 224,-91 52,-28 111,-51 131,-51 20,0 138,-46 262,-105 124,-58 243,-106 263,-106 21,0 64,-15 96,-33 32,-17 105,-46 164,-63 58,-17 338,-121 621,-233 284,-111 677,-263 874,-336 223,-83 378,-156 415,-197 41,-45 86,-64 153,-64 53,0 128,-16 167,-36 39,-20 111,-44 160,-53 48,-9 118,-40 154,-69 37,-29 111,-60 164,-69 86,-16 322,-104 850,-317 234,-95 244,-111 188,-311 -286,-1015 130,-2226 965,-2811 82,-57 188,-137 236,-177 48,-40 117,-73 155,-73 37,0 172,-54 299,-119 168,-86 263,-119 344,-119 62,0 234,-19 382,-43 203,-32 284,-35 333,-13 31,17 111,30 172,30 61,0 183,19 270,43 86,23 203,53 258,66 563,135 1215,713 1519,1348 129,269 241,670 280,1004 37,315 -239,1455 -352,1455 -14,0 -50,48 -80,107 -152,298 -693,761 -1101,943 -831,369 -1553,356 -2361,-42 -180,-89 -344,-162 -363,-162 -19,0 -46,-20 -60,-46 -14,-25 -124,-148 -246,-273 -121,-124 -262,-288 -313,-363 -118,-176 -119,-176 -661,25 -240,89 -527,195 -638,235 -110,41 -277,109 -371,151 -93,43 -205,86 -249,97 -128,32 -778,298 -975,399 -100,51 -209,93 -243,93 -115,0 -679,220 -779,304 -21,19 -81,40 -132,47 -51,8 -265,82 -476,164 -211,83 -473,183 -582,224 -109,41 -258,99 -331,129 -648,266 -860,349 -886,349 -18,0 -117,40 -221,87 -103,48 -325,133 -493,189 -167,57 -333,122 -368,145 -36,23 -172,80 -304,126 -387,135 -664,238 -1087,405 -863,341 -1663,651 -2024,784 -138,50 -281,112 -317,137 -65,44 -252,118 -411,163 -43,12 -222,78 -397,146 -174,69 -519,200 -767,293 -1088,406 -1355,510 -1442,564 -51,31 -112,56 -138,56 -25,1 -175,49 -331,108 -609,229 -1388,534 -1560,610 -61,28 -127,50 -146,50 -37,0 -533,204 -669,275 -44,23 -94,42 -111,42 -50,0 -461,187 -561,254 -61,41 -113,56 -161,47 -72,-15 -557,192 -595,253 -9,16 -62,28 -118,28 -55,0 -159,24 -230,52 -71,29 -336,131 -589,228 -253,96 -479,185 -503,198 -122,66 -1234,494 -1789,688 -160,56 -428,157 -595,223 -167,66 -417,163 -556,217 -138,53 -262,107 -276,119 -14,12 -52,22 -85,22 -33,0 -111,23 -174,52 -199,92 -979,396 -1184,461 -109,35 -282,95 -384,134 -102,39 -262,99 -357,133 -94,34 -284,106 -423,160 -138,53 -316,120 -396,147 -79,28 -181,73 -228,101 -46,27 -142,62 -214,77 -71,16 -188,54 -261,85 -72,31 -263,104 -423,162 -383,137 -318,32 -687,1120 -49,146 -139,402 -200,569 -60,167 -125,358 -144,423 -19,66 -78,239 -132,384 -92,249 -229,636 -408,1151 -43,124 -98,296 -123,384 -108,378 -227,499 -590,599 l -174,49 -134,-70 c -272,-141 -374,-206 -477,-302 -227,-212 -570,-216 -964,-13 -43,23 -114,41 -157,41 -53,0 -144,48 -287,152 -115,84 -278,188 -361,232 -85,43 -204,121 -264,174 -61,52 -151,117 -202,143 -50,26 -158,93 -238,148 -80,56 -200,118 -266,138 -66,20 -215,102 -331,182 -115,80 -305,197 -421,260 -117,62 -268,154 -336,203 -212,153 -1277,671 -1552,755 -354,108 -572,166 -758,201 -87,17 -254,61 -371,99 -174,55 -279,69 -595,80 -211,6 -401,17 -423,24 -22,6 -163,24 -313,39 -240,24 -303,42 -529,150 -331,158 -400,187 -486,206 -39,8 -107,46 -151,83 -115,97 -623,267 -982,328 -689,118 -859,193 -838,371 7,66 -4,268 -26,450 -21,182 -43,397 -50,477 -6,80 -25,252 -42,383 -17,131 -32,548 -32,926 l -2,688 83,159 c 45,87 147,256 227,376 84,126 198,351 271,537 139,351 159,375 555,674 184,139 269,215 371,334 30,35 123,127 206,205 84,78 169,175 190,215 63,121 299,313 509,413 120,56 248,144 325,220 125,125 129,127 334,142 136,9 258,37 353,79 80,36 223,98 318,138 94,40 225,117 291,171 65,54 188,149 273,211 85,62 242,198 349,302 108,104 241,217 296,251 157,96 153,91 841,840 616,670 1085,1102 1299,1199 345,155 553,308 984,719 62,59 175,137 251,173 76,36 216,114 311,173 94,59 279,162 410,229 131,66 344,182 475,257 131,75 298,159 370,186 153,58 407,201 547,309 53,41 130,89 172,107 97,42 298,188 458,331 69,61 138,112 153,112 41,0 311,226 538,452 112,110 256,226 321,256 66,31 169,113 230,183 61,70 197,203 301,296 105,93 250,225 324,295 156,149 349,298 453,353 41,21 158,101 260,177 102,76 221,155 265,175 149,71 527,343 659,475 218,219 439,705 439,966 0,71 11,150 24,176 28,52 94,758 74,791 -29,50 37,583 87,701 29,69 53,156 53,194 0,81 127,452 218,640 35,70 102,258 150,418 94,310 107,343 318,789 75,157 166,377 202,489 36,111 91,244 121,296 31,51 73,141 93,199 39,108 210,391 319,525 33,41 61,104 61,141 0,67 28,100 310,358 98,90 146,157 168,238 35,127 162,389 246,510 31,43 80,126 109,184 29,58 126,183 215,278 272,290 416,625 406,948 -3,112 -5,217 -3,233 8,66 177,86 822,102 370,9 680,21 688,26 9,6 230,17 492,26 262,8 744,33 1071,56 327,22 679,45 781,50 152,7 1356,97 1812,135 579,48 1363,126 1693,170 109,14 371,44 582,66 450,49 741,84 979,120 95,14 321,45 503,67 182,23 398,59 480,80 82,21 202,38 267,38 64,0 235,19 380,41 144,23 358,52 474,65 117,13 307,42 423,63 116,22 333,53 482,69 149,16 351,47 450,67 99,21 224,39 279,39 54,0 341,48 635,105 295,58 660,130 813,160 273,54 491,99 754,156 73,15 215,41 315,56 101,16 192,34 202,40 10,6 261,59 558,118 296,58 617,125 713,148 107,25 211,35 271,23 74,-13 100,-8 112,22 16,42 56,54 541,166 318,74 944,239 1250,329 98,29 259,77 357,106 156,46 757,208 1237,334 376,99 1835,591 2103,709 305,134 361,153 429,144 37,-5 85,15 120,49 31,32 115,75 186,96 71,21 199,73 286,117 86,43 203,93 260,112 271,87 923,428 1723,899 131,78 306,180 390,228 154,88 258,166 504,378 74,65 189,151 255,192 368,231 1037,925 1307,1356 55,89 122,185 147,215 26,29 86,160 134,291 48,131 106,259 128,284 46,53 73,389 67,853 -15,1343 -1425,2792 -3885,3992 -291,142 -559,274 -595,293 -37,19 -105,43 -153,53 -47,11 -196,66 -330,125 -135,58 -352,145 -483,193 -131,48 -351,130 -489,182 -684,255 -2271,764 -2578,826 -115,23 -252,58 -304,78 -121,47 -1436,364 -1920,464 -204,42 -502,104 -662,139 -160,35 -386,77 -503,91 -116,15 -301,45 -410,68 -224,48 -852,164 -1111,207 -95,15 -297,50 -450,76 -153,27 -337,57 -410,67 -173,24 -304,46 -688,116 -304,56 -599,99 -1442,212 -211,29 -490,71 -621,94 -131,23 -393,59 -583,80 -346,38 -822,97 -1164,144 -102,14 -298,32 -436,41 -138,9 -477,41 -754,69 -276,29 -646,64 -820,78 -1068,88 -1332,109 -1641,129 -189,13 -600,42 -913,65 -1115,81 -1600,107 -2579,135 -819,24 -1944,67 -2038,78 -58,8 -724,20 -1481,28 -756,8 -1406,20 -1443,28 -34,7 -68,7 -80,0 -1,0 -2,-1 -3,-2 l 7,3 c -1,0 -2,-1 -4,-1 z m 434,-266 c 1011,-7 1976,-16 2143,-21 167,-4 501,-11 741,-14 240,-3 561,-16 714,-29 352,-29 833,-51 1720,-79 386,-12 904,-40 1151,-63 248,-23 622,-53 833,-68 211,-15 616,-45 900,-68 284,-22 701,-51 926,-64 226,-13 535,-36 688,-53 444,-47 976,-107 1190,-133 109,-14 294,-32 410,-40 248,-17 612,-57 874,-95 101,-15 298,-37 436,-51 138,-13 430,-49 648,-79 219,-30 522,-71 675,-92 569,-76 1732,-257 2023,-315 102,-21 276,-52 385,-69 109,-17 251,-42 315,-56 65,-15 285,-49 490,-77 205,-27 563,-87 795,-132 233,-45 525,-99 649,-120 204,-34 502,-98 820,-174 211,-51 591,-129 754,-155 87,-14 226,-49 308,-78 82,-29 201,-60 264,-68 125,-16 390,-87 721,-192 115,-36 323,-93 463,-127 140,-33 439,-116 665,-183 225,-68 482,-142 569,-165 88,-23 326,-101 529,-174 204,-73 471,-168 595,-211 693,-244 1233,-454 1537,-598 96,-46 198,-83 227,-83 53,0 471,-206 902,-446 134,-75 250,-136 257,-136 25,0 832,-515 1056,-674 1946,-1384 2404,-3248 1135,-4624 -246,-267 -508,-515 -806,-761 -511,-424 -626,-512 -855,-653 -117,-72 -277,-170 -357,-220 -80,-49 -229,-134 -331,-188 -102,-53 -340,-183 -529,-287 -302,-167 -938,-477 -977,-477 -8,0 -101,-40 -207,-89 -178,-82 -290,-126 -602,-237 -290,-103 -629,-234 -708,-274 -107,-55 -1154,-410 -1475,-501 -131,-37 -327,-95 -436,-129 -181,-57 -335,-99 -1032,-281 -124,-32 -350,-92 -503,-133 -819,-221 -1007,-270 -1164,-302 -95,-19 -256,-58 -357,-86 -182,-51 -826,-185 -1191,-247 -102,-17 -246,-52 -321,-78 -75,-25 -218,-55 -318,-66 -99,-10 -259,-41 -353,-68 -95,-27 -205,-49 -245,-49 -40,0 -142,-17 -225,-38 -475,-117 -1429,-297 -1904,-359 -454,-59 -790,-109 -1343,-199 -464,-75 -752,-113 -1092,-144 -134,-13 -301,-35 -370,-51 -139,-31 -517,-85 -1145,-161 -225,-28 -553,-69 -727,-91 -451,-58 -961,-113 -1482,-161 -247,-23 -545,-53 -661,-67 -185,-22 -448,-41 -887,-66 -65,-4 -279,-14 -476,-23 -196,-9 -440,-27 -542,-42 -102,-14 -328,-32 -503,-40 -175,-8 -657,-32 -1071,-53 -619,-31 -1024,-42 -1429,-39 -22,0 -126,-7 -232,-17 -237,-22 -243,0 -55,201 75,80 155,177 178,214 68,109 402,395 525,449 62,27 145,73 185,103 155,112 960,358 1269,387 257,24 407,73 579,188 83,56 188,125 234,153 45,28 136,91 201,138 66,48 160,110 211,138 159,87 563,537 727,811 51,83 109,171 130,194 37,42 55,254 47,543 -4,118 -16,141 -139,264 -74,75 -152,169 -173,210 -94,180 -1078,706 -1323,706 -50,0 -128,19 -174,43 -87,45 -311,115 -618,194 -328,84 -815,29 -1136,-128 -87,-43 -242,-115 -344,-162 -193,-87 -295,-193 -496,-516 -161,-256 -631,-661 -911,-783 -357,-156 -1233,-474 -1307,-474 -427,0 -1002,-1005 -914,-1595 23,-148 -41,-473 -125,-641 -36,-72 -80,-186 -97,-251 -41,-153 -64,-179 -188,-212 -96,-26 -282,-126 -455,-244 -71,-48 -228,-53 -680,-22 -22,1 -718,2 -1548,3 -1346,0 -2585,23 -3558,65 -181,7 -537,20 -791,28 -253,7 -550,20 -661,28 -111,8 -326,18 -479,23 -153,5 -367,23 -475,40 -109,17 -234,25 -278,19 -44,-7 -182,3 -305,22 -124,19 -305,42 -403,51 -127,13 -202,36 -264,82 -48,35 -151,94 -228,130 -126,60 -338,198 -732,477 -73,52 -270,166 -437,253 -167,88 -501,295 -741,462 -240,167 -490,330 -555,361 -66,32 -149,77 -186,101 -36,24 -203,134 -370,245 -167,111 -341,216 -384,234 -44,19 -115,65 -158,104 -44,39 -173,127 -286,195 -230,137 -821,576 -984,729 -59,55 -163,133 -233,172 -153,88 -187,146 -164,278 20,123 -20,209 -165,358 -646,658 -1322,1129 -1677,1168 -516,57 -777,1418 -411,2139 22,44 54,161 69,261 37,231 96,345 285,552 84,91 182,208 217,259 210,301 510,555 657,555 15,0 62,36 103,80 53,56 100,79 159,79 68,0 104,23 182,119 54,66 112,119 130,119 225,0 366,810 199,1139 -120,234 -845,587 -1004,489 -22,-14 -165,10 -438,72 -314,71 -1536,-81 -1765,-220 -69,-42 -157,-84 -197,-94 -39,-10 -112,-46 -163,-80 -49,-32 -104,-61 -120,-61 -143,0 -756,-437 -756,-537 0,-16 -59,-154 -130,-308 -72,-154 -184,-438 -250,-630 -110,-325 -250,-619 -311,-657 -14,-9 -50,-68 -80,-133 -62,-130 -210,-262 -486,-433 -283,-174 -645,-532 -951,-941 -355,-472 -401,-627 -289,-973 91,-279 204,-489 315,-581 48,-40 132,-135 187,-212 196,-271 679,-763 883,-900 109,-73 252,-182 318,-243 117,-107 505,-371 794,-538 266,-154 322,-217 345,-382 15,-115 43,-177 127,-283 209,-265 431,-500 580,-614 225,-172 375,-338 443,-487 33,-73 79,-150 104,-170 24,-20 67,-80 94,-134 63,-122 206,-181 507,-206 l 220,-18 93,-132 c 51,-72 143,-180 205,-239 138,-132 140,-153 13,-135 -54,7 -200,27 -324,44 -218,30 -288,42 -926,156 -167,30 -393,67 -502,83 -110,17 -282,47 -384,67 -102,21 -316,62 -476,91 -160,29 -309,59 -331,68 -22,9 -111,26 -198,39 -176,26 -377,68 -754,156 -139,33 -371,86 -516,119 -146,33 -408,99 -582,146 -175,47 -395,103 -490,123 -95,21 -268,67 -384,101 -117,35 -318,88 -449,120 -131,31 -381,99 -556,150 -175,52 -367,104 -428,116 -113,23 -781,215 -921,265 -44,16 -193,70 -331,121 -138,51 -317,115 -397,141 -238,80 -1093,424 -1156,465 -33,21 -72,39 -87,39 -156,0 -1741,825 -2055,1070 -75,59 -189,139 -252,178 -304,187 -768,557 -802,639 -20,47 -67,102 -104,122 -251,133 -915,974 -915,1157 0,34 -28,118 -63,187 -89,176 -153,491 -192,935 -34,398 233,1124 548,1488 52,60 167,204 255,321 137,180 260,313 529,575 146,142 432,342 541,379 69,22 203,103 298,179 96,76 343,226 551,334 384,199 567,323 852,579 104,93 249,185 412,261 138,65 358,169 489,232 347,168 971,422 1297,531 101,33 268,96 370,138 169,70 509,185 1786,600 240,79 651,204 913,280 262,75 535,159 608,185 135,50 454,127 1098,266 375,81 447,98 834,197 131,33 309,75 396,92 355,69 564,114 715,152 87,22 229,50 317,62 87,12 272,47 410,78 139,30 370,73 516,94 145,21 324,51 397,64 73,14 222,37 331,53 109,15 282,45 384,66 101,21 333,57 514,80 181,23 337,47 346,53 24,15 292,56 867,134 641,87 779,107 971,143 305,57 479,80 834,107 196,15 458,39 582,54 123,15 332,37 463,50 502,49 883,84 1158,107 156,13 296,31 310,39 31,20 701,85 1244,121 225,15 505,46 622,68 138,27 407,45 780,50 583,9 843,23 1191,65 109,13 305,23 436,22 131,0 328,13 437,29 182,27 642,53 1176,67 117,2 628,19 1138,37 509,18 1063,38 1230,43 167,6 447,17 622,25 174,8 445,19 601,23 156,5 293,18 304,30 12,11 117,14 233,4 117,-9 1039,-24 2050,-31 z M 15281,57797 c 245,-32 359,-63 350,-95 -10,-35 -163,-86 -266,-88 -48,-2 -122,-20 -164,-42 -43,-22 -161,-52 -264,-66 -215,-31 -312,-78 -766,-372 -894,-582 -1310,-1021 -1532,-1619 -31,-83 -67,-172 -80,-198 -13,-26 -51,-118 -84,-206 -113,-295 -422,-896 -524,-1017 -55,-66 -124,-156 -152,-200 -88,-138 -541,-633 -615,-672 -39,-20 -144,-89 -233,-152 -299,-212 -659,-228 -838,-37 -264,284 28,837 734,1390 117,92 255,211 306,265 51,53 126,114 166,136 45,23 100,93 140,176 36,76 137,219 225,319 87,99 189,242 227,317 38,75 83,155 102,176 18,22 77,141 131,265 54,124 128,256 164,294 36,38 95,164 131,278 114,364 178,474 320,555 70,39 181,105 246,145 66,41 175,87 243,102 68,15 219,69 335,121 116,51 227,92 247,92 20,0 79,23 131,51 75,41 187,57 551,78 251,15 463,33 472,42 8,8 34,9 57,2 23,-8 131,-25 240,-40 z m 993,-324 c 10,-33 37,-81 60,-108 34,-38 36,-57 10,-98 -43,-69 -40,-105 12,-163 46,-51 27,-173 -52,-337 -89,-183 -426,-304 -504,-181 -51,80 -83,326 -45,350 55,34 26,108 -76,193 -134,111 -198,108 -316,-14 -71,-73 -173,-130 -374,-210 -812,-324 -1421,-791 -1666,-1278 -32,-65 -74,-137 -92,-159 -17,-21 -72,-140 -121,-264 -198,-503 -347,-834 -444,-988 -56,-90 -114,-200 -130,-245 -15,-45 -105,-177 -200,-294 -94,-118 -222,-298 -283,-401 -153,-254 -395,-479 -520,-479 -79,0 -97,-13 -128,-87 -85,-204 -650,-405 -777,-277 -18,18 -53,32 -78,33 -130,1 -47,126 113,172 251,71 441,169 556,288 58,60 193,183 299,274 106,91 234,219 283,285 50,65 162,211 249,324 204,264 240,335 454,902 43,114 117,275 164,357 48,82 102,185 121,229 19,44 75,142 126,218 50,76 112,183 137,238 72,156 330,487 471,603 212,174 659,497 796,574 70,40 169,96 220,126 327,187 920,359 1303,377 175,9 276,26 317,55 81,56 93,55 115,-15 z m -744,-766 c 15,-88 9,-103 -57,-143 -75,-45 -369,-234 -538,-346 -51,-34 -113,-62 -137,-62 -24,0 -80,-52 -124,-116 -44,-64 -154,-166 -244,-226 l -164,-109 -240,7 c -279,9 -290,25 -144,208 210,262 332,377 463,435 74,33 143,73 153,90 21,33 294,164 439,211 51,16 187,71 304,121 236,103 259,98 289,-70 z m -356,-728 c 0,-30 -121,-139 -274,-245 -132,-92 -228,-253 -228,-379 0,-33 -31,-88 -69,-124 -95,-88 -167,-239 -187,-388 -9,-69 -27,-146 -40,-172 -31,-61 -92,-386 -142,-761 -23,-167 -58,-387 -79,-489 -53,-256 -50,-426 10,-512 28,-39 64,-118 83,-176 18,-58 74,-182 123,-275 85,-162 112,-267 69,-267 -54,0 -227,178 -285,293 -37,72 -78,130 -91,130 -14,0 -57,66 -95,147 l -70,147 25,614 c 20,491 35,637 74,732 27,66 47,177 45,250 -2,91 9,140 39,161 22,17 50,83 61,147 11,64 36,155 55,201 43,105 -3,183 -83,140 -120,-64 -507,-14 -539,71 -53,139 162,212 689,231 55,2 121,37 198,104 236,207 711,487 711,420 z m -1225,-1079 c 9,-23 -15,-118 -54,-211 -82,-201 -227,-778 -244,-972 -6,-76 -19,-209 -28,-296 -24,-219 66,-959 123,-1016 23,-23 62,-74 86,-112 24,-39 89,-97 144,-131 55,-33 147,-97 204,-142 57,-44 153,-105 212,-134 153,-75 149,-126 -30,-350 -84,-106 -199,-265 -256,-353 -123,-193 -196,-236 -292,-174 -37,24 -87,44 -112,44 -93,0 -397,120 -499,197 -59,44 -151,104 -205,133 -57,30 -99,72 -99,99 0,33 -21,47 -70,47 -80,0 -139,65 -141,153 0,52 -13,60 -87,55 -69,-5 -111,16 -201,98 -294,269 -500,498 -578,641 l -86,156 355,359 c 195,198 380,405 410,461 30,56 69,125 87,154 134,219 183,313 243,463 38,95 83,195 99,224 46,80 181,334 237,443 67,131 109,150 385,168 128,9 238,21 244,27 29,29 138,7 153,-31 z m -1010,-1886 c -374,-132 -422,-192 -423,-521 -1,-320 164,-522 529,-646 266,-91 540,81 502,315 -11,66 -22,193 -23,282 -2,95 -18,179 -40,206 -21,25 -64,103 -97,174 -96,207 -234,265 -448,190 z m 120,-216 c 170,-91 285,-487 167,-579 -194,-153 -547,144 -507,427 14,100 245,203 340,152 z m -1703,-470 c 18,-11 44,-52 59,-91 15,-39 66,-91 114,-116 48,-24 142,-93 208,-153 162,-145 522,-386 576,-386 18,0 63,-29 99,-66 36,-36 98,-84 138,-105 39,-21 151,-119 249,-219 175,-178 242,-228 517,-381 238,-132 150,-210 -258,-229 l -251,-11 -172,137 c -94,75 -216,185 -270,244 -54,59 -155,134 -225,167 -70,33 -193,116 -273,183 -80,67 -235,169 -344,226 -459,242 -796,552 -682,628 111,74 477,196 515,172 z m 3943,-517 c 11,-19 79,-73 150,-122 71,-48 223,-178 338,-288 115,-110 237,-219 272,-241 55,-37 359,-363 359,-384 0,-85 -397,-783 -445,-783 -11,0 -114,-128 -229,-285 -230,-311 -632,-721 -786,-801 -53,-28 -104,-62 -113,-76 -93,-151 -390,-113 -569,74 -68,71 -171,160 -228,198 -57,38 -148,99 -200,134 -53,36 -122,98 -154,138 -31,41 -176,197 -320,347 -318,331 -340,419 -117,470 230,53 495,158 586,233 56,46 170,130 254,186 84,57 185,140 225,186 41,45 119,116 174,158 55,41 112,106 126,143 14,38 68,115 120,172 52,58 121,164 155,236 111,241 337,411 402,304 z m 22920,-505 c 138,-36 305,-80 370,-98 294,-81 1138,-607 1138,-710 0,-91 -682,-609 -1059,-804 -461,-238 -477,-242 -1481,-362 -407,-48 -1152,-349 -1720,-694 -95,-57 -213,-121 -263,-142 -50,-21 -155,-81 -233,-132 -256,-170 -729,-309 -889,-262 -73,22 -159,40 -192,40 -263,0 -437,180 -586,607 l -60,171 92,138 c 112,169 258,286 333,266 30,-7 92,-2 139,11 47,14 173,37 280,51 144,19 227,46 315,105 66,44 135,79 152,79 17,0 53,25 79,54 27,30 98,76 157,102 59,27 170,99 248,160 77,62 229,160 337,218 108,58 197,119 197,134 0,27 243,283 714,751 418,415 1114,529 1932,317 z M 16751,50192 c 51,-51 104,-93 117,-93 14,0 105,-72 203,-160 97,-89 220,-183 272,-209 52,-27 249,-146 437,-265 189,-119 379,-235 423,-257 44,-23 182,-116 306,-207 123,-91 266,-184 317,-205 51,-21 187,-110 304,-197 116,-86 298,-207 404,-269 105,-61 260,-167 344,-236 83,-68 253,-192 377,-273 123,-82 276,-192 340,-245 63,-53 125,-96 137,-96 13,0 68,-48 122,-107 55,-59 176,-143 273,-189 95,-45 228,-120 294,-167 67,-48 162,-95 211,-106 131,-29 298,-105 340,-155 19,-24 52,-43 72,-43 20,0 63,-31 96,-70 33,-38 108,-90 167,-116 319,-138 631,-710 567,-1039 -17,-90 -41,-224 -52,-297 -12,-74 -57,-246 -100,-384 -44,-138 -94,-316 -112,-396 -18,-80 -61,-241 -96,-358 -39,-131 -74,-343 -90,-543 -65,-834 -150,-1495 -234,-1836 -14,-59 -40,-231 -56,-384 -17,-153 -41,-381 -55,-508 -24,-227 -88,-505 -182,-788 -26,-81 -68,-217 -93,-305 -60,-209 -170,-499 -361,-955 -86,-206 -156,-388 -156,-406 0,-99 -289,-314 -479,-357 -269,-61 -304,-47 -604,245 -161,157 -367,323 -532,428 -147,95 -393,253 -545,353 -287,187 -605,346 -857,427 -80,26 -217,77 -304,113 -87,36 -218,76 -291,87 -73,12 -186,39 -251,61 -295,97 -523,129 -865,119 l -339,-7 2,105 c 3,177 36,294 110,401 39,56 144,247 233,423 190,377 336,590 554,815 88,89 272,285 411,434 169,183 320,316 463,407 219,141 411,291 553,433 114,114 221,181 353,219 161,46 305,177 269,244 -33,62 17,175 220,496 76,122 175,283 219,358 92,155 180,188 263,97 27,-29 64,-54 83,-54 43,0 198,-196 256,-325 74,-162 179,-174 128,-14 -15,48 -34,120 -42,159 -7,39 -42,104 -76,145 -34,41 -75,115 -92,163 -71,209 -493,480 -747,480 -30,0 -88,17 -130,39 -41,21 -175,50 -296,64 -131,15 -334,66 -498,124 -153,54 -355,120 -450,145 -613,164 -941,387 -1440,977 -190,226 -439,600 -439,662 0,30 -104,367 -165,535 -14,40 -83,114 -153,164 -70,50 -177,164 -238,254 -60,89 -183,236 -273,328 -149,151 -297,325 -343,403 -11,18 29,58 105,103 68,39 225,172 350,295 616,603 698,688 736,762 23,43 100,147 171,229 71,82 142,189 158,238 68,200 141,223 276,88 z m 23048,-145 c 6,-83 -6,-103 -118,-186 -225,-166 -524,-359 -737,-475 -115,-62 -293,-165 -396,-229 -102,-63 -246,-127 -318,-141 -72,-15 -273,-62 -448,-106 -174,-44 -413,-93 -529,-108 -201,-27 -471,-98 -820,-216 -172,-58 -581,-266 -794,-404 -73,-47 -239,-148 -370,-225 -131,-77 -274,-166 -318,-197 -285,-205 -912,-296 -1046,-152 -53,56 -73,60 -211,44 -97,-11 -159,-8 -170,10 -9,16 -61,41 -115,56 -54,15 -156,70 -227,122 l -129,95 12,144 c 18,212 64,245 195,140 57,-45 163,-113 235,-149 72,-37 161,-88 198,-114 148,-103 458,-146 712,-98 126,24 273,50 327,59 54,8 174,49 265,90 91,41 243,107 338,148 223,95 459,237 747,448 151,111 284,185 383,214 82,24 222,80 310,124 93,47 215,86 289,91 71,6 139,16 151,24 12,7 121,19 242,27 352,22 1206,309 1396,469 48,41 143,102 210,136 67,34 144,87 172,118 28,30 66,55 85,55 19,0 78,39 130,86 52,48 125,114 163,147 98,89 178,69 187,-47 z m -152,-589 c 0,-35 -258,-253 -365,-309 -61,-32 -61,-31 -22,44 49,95 217,225 381,295 4,2 6,-12 6,-30 z m -849,-563 c -56,-56 -513,-251 -589,-251 -34,0 -162,-46 -284,-103 -140,-66 -305,-118 -448,-143 -305,-52 -709,-264 -1242,-653 -90,-66 -208,-143 -263,-172 -55,-29 -152,-102 -216,-163 -65,-60 -206,-190 -315,-289 -109,-98 -247,-227 -306,-287 -59,-59 -201,-197 -314,-306 -113,-109 -216,-218 -229,-243 -37,-68 -351,-232 -501,-260 -75,-14 -148,-33 -163,-43 -15,-9 -94,-26 -177,-39 -82,-12 -221,-34 -308,-49 -180,-30 -292,-2 -319,82 -40,127 64,399 174,454 110,55 174,195 118,257 -85,94 260,685 380,650 287,-84 382,-96 537,-68 235,43 629,177 746,254 56,36 193,105 304,152 112,47 286,148 388,224 568,422 1110,666 1480,666 58,0 189,23 291,50 103,28 283,71 399,95 117,25 337,85 489,134 316,101 434,117 368,51 z m -5697,-1259 c 10,-16 83,-58 161,-93 167,-73 192,-116 125,-215 -26,-40 -57,-150 -67,-245 -45,-392 -72,-459 -296,-720 -399,-465 -713,-167 -415,393 56,104 121,259 145,344 107,377 280,644 347,536 z m -9675,-1042 c 182,-5 528,-15 768,-24 240,-9 585,-21 767,-26 182,-5 538,-24 791,-42 254,-18 519,-27 590,-20 70,7 179,3 240,-8 112,-22 1103,-41 3365,-64 1293,-14 1549,-26 1548,-77 -1,-16 -115,-190 -254,-386 -341,-481 -336,-468 -371,-972 -10,-138 -29,-228 -52,-248 -21,-17 -38,-68 -38,-113 -1,-95 -38,-152 -131,-202 -70,-37 -148,-123 -212,-234 -22,-38 -91,-137 -153,-220 -61,-83 -112,-166 -112,-183 0,-42 -228,-261 -271,-262 -18,0 -53,-36 -78,-80 -26,-44 -81,-100 -125,-125 -43,-25 -104,-90 -135,-145 -30,-55 -66,-99 -80,-99 -33,0 -558,-528 -751,-755 -87,-101 -225,-256 -309,-343 -153,-161 -173,-202 -362,-715 -96,-262 -190,-596 -191,-679 0,-34 -18,-121 -40,-193 -36,-118 -35,-163 5,-456 41,-298 42,-328 2,-371 -23,-26 -55,-79 -69,-119 -17,-43 -72,-94 -141,-129 -63,-32 -173,-96 -246,-142 -153,-98 -592,-141 -953,-93 -145,19 -249,13 -501,-28 -175,-29 -490,-76 -701,-104 -427,-58 -617,-93 -794,-147 -66,-19 -173,-44 -238,-54 -178,-27 -503,-129 -650,-204 -72,-36 -262,-122 -422,-190 -160,-68 -433,-196 -606,-283 -368,-185 -694,-296 -802,-273 -40,9 -100,21 -133,28 -76,15 -75,51 4,145 87,104 372,668 426,845 24,80 72,235 107,344 34,109 70,252 80,317 9,66 50,239 91,384 40,146 82,342 92,437 11,94 35,243 56,330 20,88 36,233 37,324 0,189 34,434 111,814 30,146 70,402 88,569 19,167 47,382 63,476 16,95 29,239 29,320 0,81 18,206 39,278 22,71 40,157 40,191 0,74 254,840 304,918 118,185 152,458 178,1441 5,184 -65,325 -267,538 l -148,157 92,-20 c 51,-12 242,-24 424,-29 z m 8704,-356 c 18,-73 42,-139 55,-147 12,-8 67,-99 121,-202 110,-208 172,-259 552,-448 200,-99 220,-104 331,-79 65,15 184,28 264,29 196,2 337,37 407,103 32,30 206,114 388,187 328,132 369,160 454,316 60,110 157,154 249,112 136,-62 25,-371 -202,-562 -73,-62 -160,-157 -192,-212 -32,-55 -120,-198 -196,-319 -75,-121 -145,-267 -156,-325 -10,-57 -50,-134 -88,-172 -38,-37 -108,-113 -155,-169 -92,-108 -288,-253 -345,-254 -19,0 -66,-24 -106,-52 -111,-80 -363,-131 -640,-128 -255,2 -265,4 -758,180 -90,32 -219,105 -288,161 -68,56 -135,102 -148,102 -194,0 -469,609 -353,785 31,48 38,95 25,170 -20,120 54,271 226,459 54,59 108,137 121,174 136,380 374,540 434,291 z m -780,-2087 c 84,-80 179,-142 243,-159 58,-16 127,-52 153,-81 109,-120 826,-280 1346,-300 448,-17 452,-38 123,-567 -56,-90 -110,-189 -119,-218 -10,-30 -64,-132 -122,-226 -143,-237 -274,-535 -433,-991 -33,-95 -115,-331 -183,-525 -67,-195 -145,-397 -172,-450 -93,-187 -222,-601 -322,-1030 -46,-197 -55,-311 -49,-595 14,-673 -413,-1505 -899,-1751 -72,-37 -139,-79 -149,-94 -9,-15 -65,-52 -124,-83 -98,-50 -314,-218 -550,-430 -125,-112 -330,-290 -487,-423 -71,-60 -193,-166 -271,-235 -78,-69 -210,-170 -294,-224 -84,-54 -224,-160 -311,-234 -87,-75 -220,-177 -294,-226 -75,-50 -209,-148 -299,-218 -89,-71 -261,-182 -380,-248 -120,-65 -241,-140 -270,-165 -29,-25 -107,-75 -172,-111 -66,-35 -213,-142 -328,-236 -265,-217 -466,-355 -612,-420 -64,-28 -167,-86 -229,-129 -63,-42 -168,-104 -233,-137 -66,-33 -153,-90 -196,-125 -54,-45 -99,-61 -146,-52 -38,7 -101,-6 -143,-31 -101,-59 -185,34 -229,253 -17,84 -54,201 -82,259 -29,58 -77,189 -107,291 -30,102 -71,239 -90,304 -105,352 -602,1142 -897,1428 -52,50 -94,100 -94,111 0,94 -449,565 -701,735 -73,49 -162,115 -199,146 -36,32 -149,107 -251,166 -481,281 -509,423 -120,607 110,52 231,116 269,143 38,27 157,81 264,120 107,39 233,99 278,133 132,101 488,244 783,314 150,36 326,79 391,96 66,16 239,40 384,52 487,41 820,75 893,92 40,10 171,2 291,-16 120,-19 292,-31 384,-28 92,3 216,-11 278,-33 312,-107 473,-120 524,-43 20,30 117,82 216,117 98,34 220,99 271,143 204,180 230,181 389,20 78,-78 195,-169 260,-202 65,-33 170,-96 234,-139 69,-48 213,-105 357,-142 216,-56 251,-74 335,-171 110,-128 192,-134 206,-14 12,108 -76,188 -297,269 -205,75 -292,114 -453,205 -240,137 -282,180 -463,486 -36,61 -107,169 -158,239 l -93,127 3,397 c 2,265 17,445 44,542 22,80 61,241 87,358 56,255 211,623 332,792 49,68 116,159 148,203 86,118 781,816 919,923 66,51 128,120 137,153 9,33 50,78 91,99 41,21 81,60 90,87 27,85 281,274 322,240 58,-48 107,-9 152,123 39,115 130,240 399,543 59,67 140,165 181,219 92,119 79,121 244,-34 z M 16974,39359 c 78,-15 220,-38 315,-52 324,-46 1456,-554 1891,-848 58,-39 199,-128 312,-197 247,-151 476,-413 429,-490 -35,-56 -125,-20 -265,106 -93,85 -170,132 -212,132 -89,0 -379,120 -448,185 -79,74 -494,235 -755,293 -124,28 -267,63 -318,79 -206,63 -568,79 -1124,51 -306,-15 -792,-33 -1081,-39 l -526,-11 17,85 c 69,353 302,598 600,631 122,14 318,41 434,61 262,44 544,50 731,14 z m 995,-1047 c 32,-20 109,-37 172,-38 104,0 217,-42 391,-145 36,-21 115,-51 175,-66 65,-15 180,-84 281,-165 95,-77 194,-152 222,-169 58,-35 61,-34 -308,-154 -123,-40 -290,-109 -370,-152 -80,-43 -200,-99 -266,-124 -187,-72 -640,-335 -713,-414 -36,-39 -160,-118 -274,-175 -402,-203 -1113,-981 -1354,-1481 -175,-365 -437,-710 -650,-859 -118,-81 -658,-115 -716,-45 -39,47 -166,43 -264,-7 -58,-30 -117,-37 -217,-24 -137,18 -282,-45 -282,-122 0,-79 -451,-553 -525,-553 -140,0 -182,145 -69,239 46,38 206,269 282,407 64,116 58,184 -25,283 -98,116 -96,526 4,828 34,103 75,241 91,307 39,156 516,1082 711,1379 187,285 287,406 537,651 243,238 289,272 368,272 53,0 115,21 146,49 82,75 1269,350 1335,309 11,-7 97,-2 190,11 252,35 1055,6 1128,-41 z m 3158,-854 c 79,-28 233,-100 342,-161 109,-61 341,-177 516,-256 174,-80 359,-177 410,-218 51,-41 178,-125 282,-187 386,-230 1171,-1079 1450,-1569 54,-94 39,-121 -195,-346 l -187,-181 -118,97 c -191,156 -252,252 -237,373 14,112 -543,799 -798,984 -58,42 -122,97 -142,122 -21,25 -72,63 -113,84 -40,22 -97,83 -125,138 -52,102 -147,203 -238,254 -29,16 -139,88 -246,160 -106,72 -241,162 -299,201 -58,39 -177,92 -265,117 -87,25 -176,61 -198,80 -22,19 -90,60 -152,91 -140,70 -140,88 -3,187 130,94 132,94 316,30 z m -1775,-4 c 51,-16 206,-38 344,-49 720,-61 2117,-1227 2117,-1768 0,-15 17,-42 37,-59 61,-50 254,-390 254,-447 0,-28 52,-104 116,-169 141,-144 214,-395 83,-286 -93,77 -40,-97 65,-213 58,-64 106,-143 106,-174 0,-58 38,-111 217,-302 188,-202 167,-272 -189,-641 -473,-491 -1038,-964 -1681,-1409 -73,-50 -213,-147 -311,-214 -143,-98 -191,-150 -241,-258 -94,-202 -145,-250 -359,-336 l -195,-79 -64,60 c -63,59 -156,74 -471,76 -389,3 -388,233 3,419 159,76 345,189 430,263 82,70 261,203 398,294 136,91 378,292 537,447 160,154 322,294 361,311 101,43 169,128 158,200 -21,153 -188,62 -530,-287 -121,-123 -311,-291 -422,-374 -1024,-758 -1313,-891 -1495,-690 -41,45 -108,113 -148,151 -56,54 -72,95 -72,177 0,148 -55,219 -156,205 -83,-13 -97,-2 -292,221 -49,57 -134,133 -189,169 -228,154 -357,248 -385,282 -17,20 -100,84 -186,143 -85,58 -262,182 -393,277 -256,184 -319,226 -541,362 -79,48 -202,126 -274,173 -168,111 -188,109 -254,-28 -67,-137 -470,-562 -570,-600 -248,-94 -411,76 -259,272 40,52 125,167 189,256 150,210 305,341 446,379 61,16 112,43 112,59 0,27 57,153 190,420 28,56 171,264 318,463 147,198 298,402 335,453 38,51 140,168 228,260 88,91 169,184 181,205 11,21 148,146 304,278 156,132 313,266 349,299 36,33 155,110 265,172 109,62 263,154 343,204 80,50 205,114 278,142 73,28 270,111 437,184 332,145 341,147 476,107 z m 2302,-927 c 319,-127 1431,-1284 1534,-1596 16,-50 76,-144 134,-209 185,-211 204,-347 67,-476 -174,-167 -354,-312 -383,-312 -23,0 -282,507 -708,1389 -36,72 -111,197 -168,278 -57,80 -105,165 -105,190 -1,24 -25,62 -55,83 -30,21 -86,86 -126,145 -99,150 -371,502 -402,521 -29,18 -35,66 -9,66 10,0 109,-37 221,-81 z m 2836,-2011 c 64,-132 66,-148 26,-172 -24,-14 -133,-111 -242,-215 -307,-290 -328,-294 -423,-71 -74,173 -64,191 257,437 273,210 290,211 382,21 z m -776,-583 c 85,-219 -155,-616 -424,-701 -184,-59 -248,381 -79,540 402,380 416,385 503,161 z m 1011,-278 c 61,-689 15,-934 -186,-978 -41,-9 -102,-47 -137,-84 -173,-186 -248,-172 -269,50 -9,91 -34,297 -57,457 -66,475 -75,457 432,897 160,139 176,113 217,-342 z m -10155,313 c 388,-20 375,-8 210,-196 -70,-79 -154,-183 -187,-230 -71,-103 -104,-105 -453,-35 -450,91 -470,115 -284,339 126,152 153,167 284,150 51,-6 244,-19 430,-28 z m 1515,-435 c 286,-152 677,-419 813,-556 84,-84 197,-185 251,-225 102,-74 503,-453 652,-617 46,-50 155,-169 244,-265 89,-95 203,-236 254,-312 50,-76 140,-173 199,-216 62,-45 114,-108 125,-152 10,-42 44,-102 74,-135 l 56,-60 -76,-79 c -88,-92 -200,-105 -271,-31 -25,27 -135,155 -244,285 -240,284 -453,496 -596,590 -58,38 -190,153 -292,254 -103,102 -264,232 -358,288 -93,57 -206,137 -249,177 -260,242 -474,383 -681,448 -214,68 -428,186 -438,243 -12,61 179,311 251,329 32,8 72,32 89,52 42,50 73,47 197,-18 z m 6927,-271 c 49,-158 58,-282 18,-282 -14,0 -49,-45 -77,-99 -28,-55 -108,-143 -179,-197 -70,-53 -223,-194 -340,-313 -708,-723 -1564,-1446 -1905,-1609 -72,-34 -233,-121 -357,-191 -184,-105 -269,-136 -469,-170 -305,-52 -321,-59 -340,-134 -9,-35 -42,-67 -79,-77 -35,-8 -105,-57 -155,-108 -112,-111 -123,-112 -190,-19 -260,356 -266,480 -38,726 l 129,140 79,-46 c 44,-26 99,-39 122,-30 23,9 86,-5 139,-30 183,-87 547,-5 696,156 37,40 108,95 159,124 51,29 140,88 199,132 58,43 153,110 211,148 59,38 142,101 186,142 43,40 161,129 262,197 101,68 268,210 371,314 182,187 411,372 597,486 96,59 388,354 682,689 201,230 221,233 279,51 z m -9269,47 c 80,-19 213,-59 296,-89 82,-30 261,-67 396,-82 359,-41 690,-138 861,-254 47,-31 130,-65 184,-76 55,-10 147,-43 206,-73 58,-30 163,-69 230,-87 82,-22 194,-90 331,-201 114,-93 256,-204 314,-248 108,-80 345,-289 582,-512 73,-69 184,-167 248,-217 260,-206 1061,-1190 1061,-1304 0,-23 11,-48 25,-56 24,-15 179,-325 377,-753 56,-122 127,-323 157,-446 l 56,-225 -109,-99 c -60,-56 -109,-112 -109,-125 0,-13 -53,-61 -117,-107 -142,-100 -147,-97 -251,209 -251,736 -468,1113 -614,1066 -74,-23 -60,-103 43,-249 181,-258 379,-707 451,-1024 23,-99 48,-208 57,-242 26,-107 -239,-329 -344,-288 -20,7 -69,107 -110,221 -41,114 -88,231 -106,261 -18,29 -50,106 -72,172 -22,65 -72,165 -110,221 -39,57 -83,152 -99,212 -79,302 -228,554 -399,678 -127,92 -209,201 -309,410 -126,263 -413,465 -732,516 -98,16 -212,46 -253,67 -41,21 -102,39 -134,39 -33,0 -149,34 -259,77 -110,42 -319,115 -465,162 -308,99 -402,158 -454,282 -56,134 -247,160 -247,32 0,-140 489,-500 680,-500 20,0 253,-71 518,-158 265,-86 532,-170 593,-186 132,-34 409,-290 521,-481 39,-68 186,-241 325,-384 288,-295 396,-450 483,-696 34,-95 118,-297 187,-450 69,-153 156,-362 193,-464 l 66,-185 -105,-212 c -163,-329 -186,-339 -271,-118 -57,148 -165,264 -245,264 -89,0 -79,-75 41,-298 169,-315 178,-364 101,-533 -66,-143 -239,-396 -315,-459 -80,-67 -302,108 -422,332 -27,51 -96,108 -179,150 -74,38 -160,108 -192,157 -67,102 -314,268 -438,294 -123,25 -325,194 -440,368 -100,150 -209,201 -243,113 -35,-90 97,-335 235,-439 76,-56 166,-134 203,-173 36,-40 138,-108 225,-152 88,-44 220,-133 294,-195 74,-63 176,-134 227,-158 110,-53 260,-316 260,-456 0,-96 50,-209 153,-344 l 65,-86 -32,-297 c -18,-164 -49,-385 -70,-492 -46,-242 -46,-485 1,-881 39,-328 30,-502 -31,-596 -32,-50 -32,-70 2,-146 24,-53 45,-215 55,-413 8,-179 28,-349 43,-378 21,-38 20,-79 -2,-145 -17,-51 -40,-190 -53,-310 -57,-552 -135,-748 -285,-720 -200,38 -212,68 -192,520 9,200 -35,397 -148,662 -52,121 -116,275 -142,342 -27,67 -85,194 -130,281 -44,88 -81,168 -81,178 0,23 -201,321 -283,421 -35,42 -81,120 -103,172 -99,238 -670,750 -950,853 -87,33 -171,68 -186,79 -125,95 -372,193 -562,224 -121,20 -234,45 -251,56 -18,11 -170,29 -337,39 -298,18 -438,5 -781,-70 -87,-20 -272,-43 -410,-53 -293,-20 -304,-23 -749,-181 -562,-200 -749,-323 -1041,-685 -79,-98 -179,-197 -222,-219 -43,-23 -78,-55 -78,-72 0,-17 -29,-73 -65,-125 -35,-52 -100,-189 -142,-306 -43,-116 -133,-329 -200,-472 -67,-143 -134,-310 -149,-370 -15,-61 -44,-170 -65,-242 -79,-277 -119,-545 -146,-979 -16,-248 -33,-474 -40,-503 -31,-150 -5,-1390 31,-1449 6,-11 -1,-20 -17,-20 -190,0 -302,845 -330,2501 -8,440 -26,736 -53,886 -23,124 -55,320 -71,436 -48,342 -121,449 -394,571 l -224,101 -212,-28 c -116,-15 -244,-45 -285,-65 -88,-45 -142,47 -112,189 10,44 23,139 31,212 8,72 25,143 38,157 13,14 24,49 24,80 0,30 43,156 95,280 52,123 124,311 160,418 36,107 89,238 117,291 28,53 51,128 51,166 0,39 36,147 80,239 43,92 79,207 79,255 0,48 48,187 107,309 59,122 114,267 123,323 9,55 36,131 62,167 77,112 258,487 370,768 58,147 140,335 182,418 41,82 84,180 95,216 21,69 216,405 315,543 31,43 110,184 175,312 65,128 163,289 216,357 54,69 149,196 210,283 122,173 129,181 536,609 152,160 346,367 431,459 85,93 202,202 260,242 123,86 228,193 991,1011 308,330 601,625 650,656 62,38 102,92 132,179 82,236 96,252 292,327 197,76 281,77 568,9 z m 10160,-58 c 1,-26 12,-184 26,-352 33,-394 -19,-654 -161,-806 -267,-287 -367,-264 -369,86 -1,127 -10,311 -21,409 -27,237 -12,267 241,503 221,208 284,243 284,160 z m -751,-926 c -9,-157 -23,-338 -31,-404 -14,-104 -8,-127 52,-183 105,-98 89,-130 -199,-386 -147,-131 -317,-285 -378,-344 -306,-291 -434,-405 -560,-502 -308,-235 -583,-458 -737,-598 -174,-157 -487,-377 -668,-469 -61,-31 -162,-91 -225,-134 -363,-244 -442,-162 -632,653 -34,146 57,224 216,186 170,-40 363,48 522,238 84,100 143,144 222,165 69,19 162,80 256,169 81,77 213,184 293,238 80,54 234,184 343,288 109,104 243,225 298,269 54,44 254,228 445,410 880,841 805,802 783,404 z m -3587,-2563 c 30,-79 70,-352 83,-565 8,-138 5,-147 -82,-205 -139,-94 -117,-116 -266,266 -104,269 -103,287 42,442 139,148 185,161 223,62 z m -5976,-4970 c 77,-19 230,-71 339,-116 110,-45 217,-88 239,-96 21,-8 111,-68 198,-132 87,-65 225,-154 306,-200 258,-143 453,-370 674,-785 69,-128 145,-263 170,-300 147,-217 371,-726 356,-808 -9,-47 -2,-111 14,-143 49,-90 107,-540 89,-688 l -16,-136 -188,6 c -103,4 -283,5 -400,3 -116,-2 -247,-3 -291,-1 -161,4 -689,-64 -792,-102 -660,-244 -909,-250 -1189,-30 -71,56 -211,150 -311,208 -286,167 -326,249 -301,618 36,521 30,568 -72,570 -56,1 -206,-295 -254,-502 -122,-523 -111,-592 113,-702 79,-39 163,-100 187,-135 23,-36 75,-79 114,-96 39,-17 201,-118 360,-224 159,-106 301,-193 316,-193 14,0 51,-23 82,-52 106,-99 323,-100 499,-1 124,70 191,88 384,104 128,11 249,29 268,41 53,33 455,37 524,6 48,-22 67,-18 95,21 29,39 57,45 154,32 73,-10 130,-5 148,13 28,28 67,19 257,-59 121,-49 199,-54 215,-12 10,25 34,35 64,26 26,-8 71,-20 101,-25 29,-6 75,-22 101,-36 31,-16 108,-15 215,2 120,20 182,19 225,-3 32,-16 213,-40 402,-53 366,-24 652,-103 1129,-312 111,-49 233,-89 269,-89 94,0 287,-137 370,-263 68,-103 235,-213 323,-213 148,0 157,-85 36,-323 -92,-180 -68,-207 241,-272 458,-97 866,-34 978,150 113,185 72,220 -172,151 -389,-110 -596,-87 -711,78 -85,124 -85,137 -1,137 41,0 96,30 140,79 50,54 113,87 203,106 73,14 194,39 270,54 263,53 888,18 1158,-64 611,-185 1419,-452 1574,-519 353,-152 629,-267 1245,-518 256,-104 401,-181 779,-413 73,-45 221,-117 329,-160 109,-44 228,-100 265,-125 37,-26 229,-152 425,-281 196,-128 434,-291 527,-361 182,-137 304,-183 627,-235 158,-26 228,-52 294,-108 106,-91 187,-113 339,-92 347,48 1080,-903 752,-975 -99,-22 -125,-73 -79,-159 26,-48 27,-89 3,-182 -16,-65 -30,-161 -30,-212 0,-104 -52,-148 -178,-148 -135,0 -186,-59 -142,-163 101,-237 25,-363 -160,-266 -200,103 -286,24 -195,-179 68,-150 46,-235 -88,-337 -188,-143 -445,-102 -506,81 -37,113 -277,330 -451,407 -65,29 -151,84 -191,121 -81,77 -218,112 -339,88 -56,-11 -83,-4 -94,24 -21,55 -70,48 -109,-14 -18,-29 -61,-53 -95,-53 -34,0 -84,-24 -110,-53 -120,-133 -501,83 -438,248 42,110 108,199 160,215 27,9 61,51 76,95 18,51 56,89 106,106 l 78,28 -39,115 c -21,63 -57,122 -80,130 -62,24 -653,146 -921,190 -131,22 -346,68 -476,104 -131,35 -283,66 -337,66 -55,0 -204,30 -331,67 -354,102 -613,154 -788,156 -93,1 -199,21 -257,49 -54,26 -137,44 -185,41 -48,-3 -111,7 -140,23 -29,16 -83,23 -119,17 -36,-7 -179,13 -317,45 -139,32 -293,61 -344,65 -502,37 -1541,400 -2156,753 -307,176 -942,127 -1407,-109 -164,-83 -232,-105 -287,-91 -45,11 -133,-2 -234,-34 -296,-95 -1628,-123 -1869,-39 -136,47 -885,121 -1213,119 -185,-1 -272,-19 -542,-108 -353,-118 -873,-240 -1017,-240 -51,0 -137,-14 -192,-30 -79,-24 -155,-21 -366,15 -208,34 -299,38 -413,17 -245,-45 -801,168 -1074,412 -79,71 -214,175 -299,233 -86,57 -187,144 -225,192 -38,48 -83,87 -99,87 -42,0 -107,82 -125,161 -9,37 -46,100 -82,139 -36,39 -79,121 -94,183 -16,62 -57,189 -93,284 -64,170 -154,646 -185,979 -9,95 -28,249 -42,344 -20,131 -17,220 13,374 21,112 32,227 24,258 -25,94 45,749 108,1025 53,230 164,542 365,1028 159,385 556,1045 630,1045 12,0 75,45 138,100 64,55 210,158 326,229 116,71 240,157 277,190 74,68 341,146 708,209 135,23 278,56 318,73 151,65 1211,90 1439,34 z M 8220,23378 c 143,-207 159,-301 155,-929 -2,-326 13,-744 36,-979 21,-226 58,-625 81,-887 45,-497 99,-765 209,-1031 36,-88 59,-185 51,-216 -16,-65 40,-182 263,-552 291,-482 388,-620 468,-661 43,-22 125,-109 182,-192 178,-262 850,-825 985,-826 24,-1 119,-35 212,-76 247,-110 746,-241 910,-239 44,0 204,-2 357,-4 175,-3 361,12 503,41 123,25 284,55 357,66 73,12 163,33 201,48 116,45 848,194 866,177 141,-142 12,-1111 -205,-1532 -191,-371 -170,-465 131,-574 243,-89 252,-162 79,-672 l -45,-133 -213,-18 c -381,-32 -680,-296 -831,-732 -76,-222 -180,-253 -331,-98 -113,116 -114,112 50,185 320,142 487,436 391,688 -15,39 -17,111 -5,167 34,161 -14,297 -119,341 -96,40 -141,120 -141,250 0,113 -100,147 -233,80 -270,-136 -366,-87 -261,135 60,129 81,224 73,345 -13,220 -292,36 -377,-247 -24,-82 -51,-117 -107,-136 -101,-35 -96,-54 75,-262 170,-209 148,-201 331,-116 256,119 428,75 267,-68 -209,-187 -300,-211 -540,-141 -64,18 -233,333 -233,433 0,46 -13,107 -28,135 -22,41 -16,69 26,127 29,42 66,109 81,149 58,152 403,648 460,663 201,50 265,-102 186,-443 -40,-173 179,-149 225,25 119,442 66,574 -249,619 -399,57 -458,31 -630,-281 -78,-142 -126,-144 -265,-17 -162,150 -275,192 -454,171 -115,-13 -159,-7 -218,31 -91,60 -299,269 -299,301 0,38 -398,307 -507,343 -53,18 -111,49 -129,70 -58,70 -171,51 -126,-21 21,-32 53,-113 72,-178 146,-501 791,-1407 1048,-1471 169,-43 220,61 57,115 -196,64 -581,526 -734,879 -15,36 -57,123 -92,194 -36,70 -65,159 -65,196 0,110 102,-1 124,-133 11,-72 42,-126 98,-173 46,-37 205,-191 354,-342 291,-294 357,-324 372,-171 10,102 56,110 190,30 235,-141 278,-241 207,-478 -82,-276 182,-902 435,-1031 216,-110 209,-111 492,31 367,183 382,179 413,-116 25,-242 -6,-310 -176,-390 -180,-84 -276,-159 -370,-287 -44,-59 -98,-108 -120,-108 -109,0 47,-290 232,-432 351,-268 480,-236 763,188 61,92 134,181 163,198 32,21 51,62 51,112 0,169 423,543 614,543 149,0 175,-58 47,-102 -57,-20 -84,-50 -95,-106 -14,-67 -39,-86 -171,-135 -222,-81 -436,-445 -367,-627 36,-95 69,-57 130,146 58,197 95,242 248,305 56,23 136,71 178,106 129,109 413,176 440,103 20,-50 -92,-154 -287,-267 -349,-203 -557,-457 -515,-627 25,-96 87,-81 147,36 59,117 163,211 341,312 68,38 189,108 269,156 244,145 435,153 521,21 89,-136 -203,-284 -441,-224 -308,79 -800,-402 -571,-559 50,-34 64,-22 118,99 75,171 496,429 507,311 11,-120 27,-179 51,-187 39,-13 101,-144 87,-184 -23,-64 -213,-138 -354,-138 -89,0 -186,-22 -273,-63 -74,-34 -167,-75 -207,-92 -81,-32 -97,-102 -30,-128 24,-9 160,23 303,70 288,97 389,95 294,-7 -34,-36 -51,-80 -42,-112 28,-107 -150,-234 -299,-212 -70,10 -157,18 -193,17 -37,-2 -222,-6 -413,-9 -247,-5 -359,-17 -390,-43 -96,-79 -19,-162 153,-162 85,0 94,-7 95,-73 0,-40 18,-96 39,-124 61,-81 47,-162 -42,-237 -108,-91 -198,-90 -246,5 -27,50 -87,93 -193,136 -85,34 -207,102 -272,152 -182,139 -488,214 -521,127 -23,-60 40,-120 202,-191 384,-170 544,-316 318,-290 -115,14 -142,8 -212,-52 -90,-75 -209,-71 -350,12 -68,41 -77,40 -151,-15 -102,-75 -144,-74 -197,7 -81,122 -132,128 -237,26 -168,-163 -254,-122 -378,182 -106,259 -396,484 -485,376 -46,-56 2,-128 169,-251 156,-116 260,-233 238,-269 -56,-92 -306,77 -475,321 -78,113 -119,128 -171,65 -88,-105 -211,-16 -241,174 -33,212 -225,356 -338,253 -73,-66 -122,-52 -198,58 -85,122 -87,146 -11,196 58,39 58,39 10,147 -115,255 -242,138 -160,-146 30,-103 -83,-73 -220,58 l -123,119 -2,197 c -1,148 -13,209 -47,247 -26,28 -46,66 -46,85 0,19 -32,129 -71,244 -69,203 -70,212 -29,347 113,373 44,557 -129,343 -82,-102 -103,-65 -139,251 -50,426 -24,569 127,688 132,105 188,164 188,197 0,35 -88,23 -143,-18 -132,-100 -135,47 -6,288 38,72 70,144 70,163 0,18 34,108 78,200 43,91 98,257 121,366 23,110 58,265 78,346 38,148 27,402 -35,780 -54,326 -286,1077 -389,1257 -81,142 -297,602 -342,727 -51,146 -157,405 -214,530 -84,181 -152,351 -189,476 -22,73 -61,174 -86,225 -26,51 -73,193 -106,317 -33,124 -69,237 -80,252 -35,46 -55,153 -80,414 -23,252 -113,677 -161,768 -160,298 -15,945 263,1180 266,224 375,220 539,-18 z m 1013,-6192 c -24,-39 13,-106 189,-343 93,-124 181,-273 197,-332 110,-410 150,-487 426,-827 248,-306 373,-231 139,84 -236,321 -383,645 -383,845 0,132 -5,141 -179,316 -294,298 -343,330 -389,257 z m 8546,4802 c 130,-23 285,-64 343,-92 151,-71 272,-111 420,-137 71,-12 149,-41 174,-63 25,-23 93,-41 156,-41 132,0 483,-117 513,-172 15,-26 46,-33 97,-23 57,11 84,2 114,-40 21,-30 91,-79 157,-108 65,-29 149,-76 186,-105 81,-64 251,-104 435,-102 75,0 176,-13 225,-29 49,-16 209,-26 356,-23 177,5 280,-4 306,-25 51,-42 428,-119 482,-98 24,9 86,-4 138,-28 52,-25 112,-38 133,-30 45,17 383,-68 565,-142 66,-27 179,-56 252,-63 73,-8 222,-55 331,-104 109,-50 263,-112 342,-138 80,-26 199,-82 265,-124 66,-42 177,-93 245,-114 69,-20 208,-85 309,-144 101,-59 193,-108 203,-108 43,0 443,-252 485,-306 25,-32 124,-111 219,-174 95,-64 261,-174 368,-246 108,-72 230,-158 271,-191 126,-103 371,-237 468,-256 312,-62 485,-283 329,-420 -66,-58 -156,-158 -200,-222 -88,-129 -125,-141 -195,-63 -27,29 -62,53 -78,53 -17,0 -114,54 -215,121 -102,66 -251,157 -334,201 -83,44 -197,119 -252,166 -55,47 -219,149 -365,227 -145,77 -292,162 -325,187 -34,26 -123,67 -199,91 -75,25 -204,85 -285,134 -182,110 -505,249 -576,249 -28,0 -87,30 -131,67 -105,88 -517,270 -666,293 -65,11 -208,60 -317,110 -109,51 -258,113 -331,139 -73,25 -174,61 -225,79 -51,18 -177,68 -278,112 -102,43 -232,91 -291,105 -58,15 -173,45 -256,67 -103,28 -199,35 -300,24 -81,-10 -364,1 -627,24 -264,23 -540,45 -614,50 -293,18 -486,53 -683,125 -114,41 -251,75 -305,76 -108,0 -306,80 -390,157 -51,47 -446,159 -606,172 -45,3 -153,25 -240,48 -88,22 -204,48 -258,58 -100,16 -140,92 -71,134 16,10 21,47 13,82 -31,122 55,331 190,462 69,67 141,141 160,166 25,31 47,37 81,19 26,-14 153,-44 283,-67 z m 9467,-3732 c 74,-21 168,-45 208,-53 127,-26 107,-283 -33,-421 l -104,-103 -204,18 c -141,13 -225,35 -272,71 -38,29 -98,75 -133,101 l -64,48 127,148 c 192,221 266,251 475,191 z m 1192,-254 c 45,-25 110,-54 147,-65 375,-112 761,-549 637,-723 -28,-40 -60,-105 -70,-145 -9,-39 -26,-76 -36,-83 -32,-19 -248,205 -330,341 -92,153 -309,303 -536,370 -85,26 -170,51 -188,57 -87,27 -98,142 -20,223 109,114 228,122 396,25 z m -444,-471 c 72,-68 206,-136 267,-136 76,0 298,-158 332,-235 49,-114 255,-408 341,-487 90,-83 93,-190 7,-321 -48,-73 -118,-91 -118,-30 0,75 -104,276 -223,432 -66,88 -121,172 -121,185 0,25 -421,375 -562,468 -40,26 -73,68 -73,93 0,93 68,107 150,31 z m -13511,-791 c 0,-10 7,-46 16,-79 11,-42 5,-59 -24,-59 -47,0 -77,63 -55,119 16,40 62,55 63,19 z m 15222,-97 c 21,-50 63,-219 94,-377 50,-257 116,-472 269,-865 27,-71 50,-152 50,-180 0,-28 42,-132 94,-232 69,-133 89,-200 76,-250 -10,-40 -4,-85 14,-107 72,-87 23,-159 -118,-176 -658,-79 -937,-112 -1336,-159 -255,-29 -546,-66 -648,-80 -273,-39 -596,-59 -596,-37 0,10 42,67 93,127 51,59 93,130 93,158 0,56 137,193 240,240 171,78 349,331 335,477 l -13,135 182,182 c 117,118 182,204 182,243 0,70 63,131 116,110 21,-8 57,8 82,35 24,26 79,63 121,80 79,33 289,315 289,389 0,21 33,71 73,109 40,39 106,115 147,170 91,122 113,123 161,8 z m -2680,-2442 c 102,-60 97,-81 -22,-101 -55,-9 -121,-22 -146,-29 -67,-19 -88,62 -32,124 58,64 101,65 200,6 z"
     id="path4873"
     style="display:inline" /></g>
</svg>
